<?xml version="1.0" standalone="no"?>
<!DOCTYPE svg PUBLIC "-//W3C//DTD SVG 20010904//EN"
 "http://www.w3.org/TR/2001/REC-SVG-20010904/DTD/svg10.dtd">
<svg version="1.0" xmlns="http://www.w3.org/2000/svg"
 width="512.000000pt" height="512.000000pt" viewBox="0 0 512.000000 512.000000"
 preserveAspectRatio="xMidYMid meet">
<metadata>
Created by potrace 1.14, written by Peter Selinger 2001-2017
</metadata>
<g transform="translate(0.000000,512.000000) scale(0.100000,-0.100000)"
fill="#000000" stroke="none">
<path d="M2340 5111 c0 -4 -32 -11 -71 -15 -121 -11 -358 -62 -489 -106 -236
-78 -422 -168 -621 -300 -160 -107 -253 -183 -400 -330 -412 -412 -660 -898
-743 -1461 -11 -74 -16 -180 -16 -349 0 -263 9 -344 61 -572 182 -793 782
-1478 1556 -1777 218 -84 461 -143 642 -157 50 -4 91 -11 91 -15 0 -12 407
-12 414 -1 3 5 44 12 91 16 174 13 426 74 630 153 716 275 1272 855 1509 1574
49 146 106 399 106 466 0 12 5 23 10 23 13 0 14 563 1 588 -5 9 -21 86 -35
170 -63 370 -240 759 -499 1102 -85 112 -309 341 -421 430 -320 254 -706 436
-1087 511 -80 16 -178 32 -218 35 -39 4 -71 11 -71 15 0 5 -99 9 -220 9 -121
0 -220 -4 -220 -9z"/>
</g>
</svg>
