<?xml version="1.0" encoding="utf-8"?>
<!-- Generator: Adobe Illustrator 26.0.2, SVG Export Plug-In . SVG Version: 6.00 Build 0)  -->
<svg version="1.1" id="レイヤー_1" xmlns="http://www.w3.org/2000/svg" xmlns:xlink="http://www.w3.org/1999/xlink" x="0px"
	 y="0px" width="600px" height="600px" viewBox="0 0 600 600" style="enable-background:new 0 0 600 600;" xml:space="preserve">
<style type="text/css">
	.st0{fill:#FFFFFF;}
	.st1{fill:#541B86;}
</style>
<g>
	<path class="st0" d="M300,0c165.4,0,300,134.6,300,300c0,165.4-134.6,300-300,300C134.6,600,0,465.4,0,300C0,134.6,134.6,0,300,0z"
		/>
	<g>
		<g>
			<path class="st1" d="M300,8.2c160.9,0,291.8,130.9,291.8,291.8c0,160.9-130.9,291.8-291.8,291.8C139.1,591.8,8.2,460.9,8.2,300
				C8.2,139.1,139.1,8.2,300,8.2z M300,99.2C189.1,99.2,99.2,189.1,99.2,300c0,110.9,89.9,200.8,200.8,200.8S500.8,410.9,500.8,300
				C500.8,189.1,410.9,99.2,300,99.2z"/>
			<g>
				<g>
					<path class="st1" d="M438.9,175.6c-48.4,9.6-102.1-10.7-138.9-48.5c-36.7,37.8-90.5,58.1-138.8,48.5
						c-20.7,85.9-12.1,155.7,11.6,205.6c17.3,36.3,47.2,61.9,66.5,73.9c19.1,11.9,40.1,23.3,60.7,32.9c20.7-9.5,41.7-21,60.7-32.9
						c19.3-12,49.2-37.6,66.5-73.9C450.9,331.3,459.6,261.5,438.9,175.6z M300,153.7l47.3,29.4l-5.9,8.8l-9.3-5.8
						c-1.7,10.4-4.6,25.9-6.1,31.4h15.2V228h-82.3v-10.5h15.2c-1.5-5.5-4.5-21-6.1-31.4l-9.3,5.8l-5.9-8.8L300,153.7z M326.8,266.2
						c-10.1,1.9-19.5,5.7-26.8,10.7c-7.4-5-16.7-8.8-26.8-10.7v-22.6h53.7V266.2z M377.7,288c0,6.8,0,54.9,0,76.5
						c-25-10.2-53.9-6.8-74.7,3.6v-81.2l2.6-1.8C324.5,272.4,355.5,269.6,377.7,288z M297.1,286.9v81.3
						c-20.8-10.4-49.7-13.8-74.7-3.6c0-21.7,0-69.8,0-76.5c22.2-18.4,53.2-15.6,72.1-2.9L297.1,286.9z M160.5,268.6
						c0-8,0.3-16.3,1-25h101.8v21.4c-14.9-0.8-30.7,2.8-44.4,13h-58.2C160.5,275,160.5,271.8,160.5,268.6z M161.1,288h51.3v40.9
						h-45.7C164.1,316.6,162.1,303,161.1,288z M263.2,456.5c-6.1-3.5-12.1-7.1-18.1-10.8c-20.2-12.6-47.2-37.4-62.3-69.2
						c-4.9-10.4-9.8-23-13.7-37.7h43.3v42.4c14.9-10.8,33.5-14.1,50.8-12.4V456.5z M326.8,462.1c-9,4.9-18,9.5-26.8,13.7
						c-8.9-4.2-17.9-8.8-26.8-13.7v-91.7c10.1,2.1,19.5,6,26.8,10.9c7.4-4.9,16.7-8.8,26.8-10.9V462.1z M417.2,376.5
						c-15.1,31.9-42.1,56.7-62.3,69.2c-5.9,3.7-12,7.3-18.1,10.8v-87.7c17.3-1.7,35.9,1.6,50.8,12.4v-42.4h43.3
						C427,353.5,422.1,366.1,417.2,376.5z M433.2,328.9h-45.7V288h51.3C438,303,435.9,316.6,433.2,328.9z M381.2,278.1
						c-13.7-10.2-29.5-13.8-44.4-13v-21.4h101.8c0.7,8.7,1,17,1,25c0,3.2-0.1,6.4-0.1,9.5H381.2z"/>
					<path class="st1" d="M314.7,217.5c1.9-6.8,5.9-29.1,7-37.8L300,166.2l-21.8,13.5c1.1,8.7,5.2,31,7,37.8H314.7z"/>
				</g>
				<g>
					<path class="st1" d="M238.1,305.8c0.3,0,0.6-0.1,0.6-0.2c0-0.1-0.1-0.2-0.5-0.2c-0.4,0-1.1-0.1-1.5-0.1c-0.9-0.1-1-0.7-1.1-1.4
						c-0.2-1.1-0.2-3.1-0.2-5.5v-10.2c0-0.3,0.1-0.4,0.2-0.5c0.3-0.1,0.7-0.1,1,0c0.7,0.1,1.3,0.4,2,0.9c1.6,1.3,1.7,3,1.7,3.8
						c0,2.6-1.2,4.2-2.8,4.2c-0.6,0-0.8,0.1-0.8,0.3c0,0.2,0.2,0.2,0.3,0.2c0.2,0,0.5,0,0.6,0c4.1,0,6-2.5,6-6.1
						c0-1.4-0.8-2.5-1.4-3c-1.4-1.1-2.7-1.4-4.6-1.4c-1.3,0-2.7,0.1-3.9,0.1c-0.8,0-2.6-0.1-4.1-0.1c-0.4,0-0.6,0.1-0.6,0.2
						c0,0.2,0.2,0.2,0.5,0.2c0.4,0,0.9,0,1.1,0.1c0.9,0.2,1.2,0.6,1.2,1.4c0.1,0.8,0.1,1.5,0.1,5.4v4.5c0,2.3,0,4.4-0.1,5.4
						c-0.1,0.7-0.3,1.3-0.8,1.4c-0.3,0-0.6,0.1-1,0.1c-0.3,0-0.5,0.1-0.5,0.2c0,0.2,0.2,0.2,0.6,0.2c1.1,0,3-0.1,3.6-0.1
						C234.4,305.7,236.2,305.8,238.1,305.8z"/>
					<path class="st1" d="M241.4,335.1c-1.3,0-2.7,0.1-3.9,0.1c-0.8,0-2.6-0.1-4.1-0.1c-0.4,0-0.6,0-0.6,0.2c0,0.2,0.2,0.2,0.5,0.2
						c0.4,0,0.9,0,1.1,0.1c1,0.2,1.2,0.6,1.2,1.4c0.1,0.8,0.1,1.5,0.1,5.4v4.5c0,2.3,0,4.4-0.1,5.4c-0.1,0.7-0.2,1.3-0.8,1.4
						c-0.3,0.1-0.6,0.1-1,0.1c-0.3,0-0.5,0.1-0.5,0.2c0,0.2,0.2,0.2,0.6,0.2c1.2,0,2.9-0.1,3.6-0.1c0.8,0,2.5,0.1,4.4,0.1
						c0.3,0,0.5-0.1,0.5-0.2c0-0.1-0.1-0.2-0.4-0.2c-0.4,0-1.1-0.1-1.5-0.1c-0.9-0.1-1-0.7-1.1-1.4c-0.1-1.1-0.1-3.1-0.1-5.4v-10.2
						c0-0.3,0.1-0.4,0.2-0.5c0.2-0.1,0.7-0.1,1-0.1c0.7,0.1,1.3,0.4,2,0.9c1.6,1.3,1.7,3,1.7,3.8c0,2.6-1.2,4.2-2.8,4.2
						c-0.6,0-0.8,0.1-0.8,0.3c0,0.2,0.2,0.2,0.3,0.2c0.1,0,0.4,0,0.6,0c4.1,0,6-2.5,6-6.2c0-1.3-0.8-2.5-1.4-3
						C244.7,335.3,243.3,335.1,241.4,335.1z"/>
					<path class="st1" d="M250.2,283.3c0.4,0,0.8,0,1,0.1c0.8,0.2,1,0.6,1.1,1.5c0.1,0.8,0.1,1.5,0.1,5.4v4.5c0,2.3,0,4.3-0.1,5.4
						c-0.1,0.7-0.2,1.3-0.7,1.4c-0.3,0-0.5,0.1-0.9,0.1c-0.3,0-0.4,0.1-0.4,0.2c0,0.2,0.2,0.3,0.5,0.3c1,0,3.1-0.1,3.5-0.1
						c0.4,0,2.4,0.1,3.9,0.1c0.3,0,0.5-0.1,0.5-0.3c0-0.1-0.1-0.2-0.3-0.2c-0.3,0-0.9-0.1-1.2-0.1c-0.8-0.1-0.9-0.7-1-1.4
						c-0.1-1.1-0.1-3.1-0.1-5.5v-0.4c0-0.2,0.1-0.2,0.2-0.2l1.6,0.1c0.2,0,0.3,0,0.5,0.2c0.3,0.4,1.5,2.1,2.5,3.5
						c1.4,2,2.4,3.2,3.5,3.7c0.7,0.4,1.3,0.5,2.7,0.5h2.7c0.3,0,0.5,0,0.5-0.3c0-0.1-0.1-0.2-0.3-0.2c-0.2,0-0.4,0-0.7-0.1
						c-0.4-0.1-1.4-0.3-2.8-1.7c-1.5-1.6-3.3-3.8-5.5-6.7c2.6-2.1,3.4-3.8,3.4-5.7c0-1.7-1-3-1.7-3.5c-1.4-1-3.4-1.1-5-1.1
						c-0.8,0-2.7,0.1-3.6,0.1c-0.5,0-2.1-0.1-3.5-0.1c-0.4,0-0.6,0-0.6,0.2C249.8,283.2,249.9,283.3,250.2,283.3z M255.9,284.5
						c0-0.2,0-0.3,0.2-0.4c0.3-0.1,0.1-0.1,0.8-0.1c1.5,0,3.6,1.1,3.6,4.7c0,2.1-0.8,3.2-1.5,3.8c-0.5,0.3-0.5,0.4-1.5,0.4
						c-0.7,0-0.8-0.1-1.4-0.2c-0.2-0.1-0.2-0.2-0.2-0.5V284.5z"/>
					<path class="st1" d="M329.5,355.3c-0.2,0-0.4,0-0.7-0.1c-0.4-0.1-1.4-0.3-2.8-1.7c-1.5-1.6-3.3-3.9-5.5-6.7
						c2.6-2.1,3.4-3.8,3.4-5.7c0-1.7-1-3-1.7-3.5c-1.4-1-3.4-1.1-5-1.1c-0.8,0-2.7,0.1-3.6,0.1c-0.5,0-2.1-0.1-3.5-0.1
						c-0.4,0-0.6,0-0.6,0.2c0,0.2,0.2,0.2,0.4,0.2c0.4,0,0.8,0,1,0.1c0.8,0.2,1.1,0.6,1.1,1.5c0,0.8,0,1.5,0,5.4v4.5
						c0,2.3,0,4.3-0.1,5.4c-0.1,0.7-0.2,1.3-0.7,1.4c-0.2,0-0.5,0.1-0.9,0.1c-0.3,0-0.4,0.1-0.4,0.2c0,0.2,0.2,0.3,0.5,0.3
						c1,0,3.1-0.1,3.5-0.1c0.4,0,2.4,0.1,3.9,0.1c0.3,0,0.5-0.1,0.5-0.3c0-0.1-0.1-0.2-0.3-0.2c-0.3,0-0.9-0.1-1.2-0.1
						c-0.8-0.1-0.9-0.7-1-1.4c-0.1-1.1-0.1-3.1-0.1-5.5V348c0-0.2,0.1-0.2,0.2-0.2l1.6,0.1c0.2,0,0.3,0,0.5,0.2
						c0.3,0.4,1.5,2.1,2.5,3.5c1.4,2,2.4,3.2,3.5,3.7c0.7,0.4,1.3,0.5,2.7,0.5h2.7c0.3,0,0.5-0.1,0.5-0.3
						C329.8,355.4,329.7,355.3,329.5,355.3z M318.7,346.2c-0.5,0.3-0.5,0.4-1.5,0.4c-0.6,0-0.8-0.1-1.4-0.3
						c-0.2-0.1-0.2-0.2-0.2-0.4v-7.7c0-0.2,0-0.3,0.2-0.4c0.3-0.1,0.1-0.1,0.8-0.1c1.5,0,3.6,1,3.6,4.7
						C320.2,344.5,319.5,345.6,318.7,346.2z"/>
					<path class="st1" d="M281.6,286.2c-6.5,0-8.9,5.6-8.9,10c0,4.5,2.5,10,8.7,10c5.5,0,9-4.6,9-10.4
						C290.3,289.9,287,286.2,281.6,286.2z M282.2,304.9c-3.5,0-5.7-4.2-5.7-9.5c0-6.4,2.4-8,4.5-8c3,0,5.4,3.6,5.4,9.3
						C286.4,304,283.5,304.9,282.2,304.9z"/>
					<path class="st1" d="M361.2,286.2c-6.5,0-8.9,5.6-8.9,10c0,4.5,2.5,10,8.7,10c5.5,0,8.9-4.6,8.9-10.4
						C369.9,289.9,366.6,286.2,361.2,286.2z M361.7,304.9c-3.5,0-5.7-4.2-5.7-9.5c0-6.4,2.4-8,4.5-8c3,0,5.4,3.6,5.4,9.3
						C366,304,363,304.9,361.7,304.9z"/>
					<path class="st1" d="M310.2,287c0.3,0,0.7,0,0.9,0.1c0.7,0.2,0.9,0.6,1,1.4c0,0.8,0,1.5,0,5.4v4.5c0,2.3,0,4.4-0.1,5.4
						c-0.1,0.7-0.2,1.3-0.7,1.4c-0.2,0-0.5,0.1-0.8,0.1c-0.3,0-0.4,0.1-0.4,0.2c0,0.2,0.2,0.2,0.5,0.2c0.9,0,2.3-0.1,2.8-0.1
						c1.1,0,3.1,0.3,4.8,0.3c4.1,0,6.5-1.8,7.5-3c1.2-1.4,2.4-3.9,2.4-7.1c0-3-1.1-5.2-2.2-6.5c-2.4-2.9-6.2-2.9-9-2.9
						c-1.3,0-2.8,0.1-3.5,0.1c-0.6,0-2-0.1-3.2-0.1c-0.3,0-0.5,0.1-0.5,0.2C309.8,287,310,287,310.2,287z M315.6,293.5
						c0-2,0-4.2,0-5.1c0-0.3,0.1-0.4,0.2-0.5c0.1-0.1,0.9-0.2,1.2-0.2c1.5,0,3.7,0.3,5.4,2.6c0.8,1,1.8,3.1,1.8,6.4
						c0,2.6-0.4,4.9-1.6,6.3c-1.1,1.3-2.5,1.8-4.4,1.8c-1.5,0-2.2-0.5-2.5-1c-0.2-0.3-0.2-1.3-0.2-1.9c0-0.5,0-2.4,0-5.1V293.5z"/>
					<path class="st1" d="M346.3,301.5c0.1-0.5,0.4-2.2,0.4-2.8c0-0.3,0-0.5-0.2-0.5c-0.2,0-0.3,0.1-0.3,0.4c-0.2,1-0.5,1.6-1.3,1.9
						c-0.7,0.3-1.9,0.3-2.6,0.3c-2.9,0-3.3-0.4-3.4-2.1c0-0.7,0-3.1,0-4v-2c0-0.2,0-0.3,0.2-0.3c0.7,0,3.4,0,4,0.1
						c1,0.1,1.4,0.5,1.6,1c0.1,0.3,0.1,0.7,0.1,0.9c0,0.1,0.1,0.2,0.3,0.2c0.2,0,0.2-0.3,0.2-0.5c0-0.2,0.1-1.2,0.1-1.7
						c0.1-1.3,0.2-1.7,0.2-1.8c0-0.2-0.1-0.2-0.2-0.2c-0.1,0-0.3,0.1-0.5,0.3c-0.2,0.3-0.7,0.3-1.3,0.4c-0.7,0.1-3.9,0.1-4.5,0.1
						c-0.1,0-0.2-0.1-0.2-0.3v-6.5c0-0.2,0.1-0.2,0.2-0.2c0.6,0,3.5,0,4,0.1c1.4,0.1,1.7,0.5,1.9,0.9c0.1,0.3,0.2,0.8,0.2,0.9
						c0,0.2,0.1,0.4,0.3,0.4c0.2,0,0.2-0.2,0.3-0.3c0.1-0.3,0.1-1.4,0.1-1.7c0.1-1.2,0.2-1.5,0.2-1.7c0-0.1,0-0.2-0.2-0.2
						c-0.1,0-0.3,0.1-0.4,0.1c-0.2,0-0.7,0.1-1.2,0.1c-0.5,0-6.1,0-7,0c-0.8,0-2.6-0.1-4-0.1c-0.4,0-0.6,0-0.6,0.2
						c0,0.2,0.2,0.2,0.5,0.2c0.4,0,0.9,0,1.1,0.1c0.9,0.2,1.1,0.6,1.2,1.5c0.1,0.8,0.1,1.5,0.1,5.4v4.5c0,2.3,0,4.3-0.1,5.4
						c-0.1,0.7-0.3,1.3-0.8,1.4c-0.3,0-0.6,0.1-1,0.1c-0.3,0-0.5,0.1-0.5,0.2c0,0.2,0.2,0.3,0.6,0.3c1.1,0,2.9-0.1,3.5-0.1
						c1.7,0,3.5,0.1,7.8,0.1C345.9,302.1,346.1,302.1,346.3,301.5z"/>
					<path class="st1" d="M272.8,311.6c0.6,0,3.5,0.1,4,0.1c1.4,0.1,1.7,0.4,1.9,0.9c0.1,0.3,0.2,0.8,0.2,0.9c0,0.2,0.1,0.3,0.3,0.3
						s0.2-0.1,0.3-0.3c0.1-0.3,0.1-1.4,0.1-1.7c0.1-1.2,0.2-1.5,0.2-1.7c0-0.1,0-0.2-0.2-0.2c-0.1,0-0.3,0.1-0.5,0.1
						c-0.2,0.1-0.7,0.1-1.2,0.2c-0.5,0-6.1,0-7,0c-0.8,0-2.5-0.1-4-0.1c-0.4,0-0.6,0-0.6,0.2c0,0.2,0.2,0.2,0.5,0.2
						c0.4,0,0.9,0,1.1,0.1c0.9,0.2,1.1,0.6,1.2,1.4c0.1,0.8,0.1,1.5,0.1,5.4v4.5c0,2.3,0,4.4-0.1,5.4c-0.1,0.8-0.2,1.3-0.8,1.4
						c-0.2,0.1-0.6,0.1-1,0.1c-0.4,0-0.5,0.1-0.5,0.2c0,0.2,0.2,0.2,0.6,0.2c1.1,0,2.9-0.1,3.5-0.1c1.6,0,3.5,0.1,7.8,0.1
						c1.1,0,1.3,0,1.5-0.7c0.1-0.5,0.4-2.2,0.4-2.8c0-0.3,0-0.5-0.2-0.5c-0.2,0-0.3,0.1-0.3,0.4c-0.2,1-0.5,1.6-1.3,1.9
						c-0.7,0.3-1.9,0.3-2.7,0.3c-2.8,0-3.3-0.4-3.3-2.1c0-0.7,0-3.1,0-4v-2c0-0.1,0-0.2,0.2-0.2c0.7,0,3.4,0,4,0.1
						c1,0.1,1.4,0.5,1.6,1c0.1,0.3,0.1,0.7,0.1,0.9c0,0.1,0.1,0.2,0.2,0.2c0.3,0,0.3-0.3,0.3-0.5s0-1.2,0.1-1.7
						c0.1-1.3,0.2-1.7,0.2-1.9c0-0.1-0.1-0.2-0.2-0.2c-0.1,0-0.3,0.1-0.4,0.3c-0.2,0.2-0.7,0.3-1.3,0.4c-0.6,0-3.9,0-4.5,0
						c-0.2,0-0.2-0.1-0.2-0.3v-6.4C272.6,311.7,272.7,311.6,272.8,311.6z"/>
					<path class="st1" d="M333.2,313.5c0,0.4,0.1,0.5,0.3,0.5c0.2,0,0.2-0.1,0.2-0.4c0-0.7,0.1-2.4,0.1-3c0-0.4,0-0.5-0.2-0.5
						c-0.2,0-0.8,0.3-2.4,0.3h-10.1c-0.9,0-1.8-0.1-2.6-0.1c-0.6-0.1-0.9-0.3-1.1-0.3c-0.2,0-0.2,0.1-0.3,0.5
						c-0.1,0.2-0.5,2.5-0.5,2.9c0,0.3,0.1,0.4,0.2,0.4c0.2,0,0.2-0.1,0.3-0.3c0.1-0.2,0.2-0.5,0.4-0.9c0.4-0.6,1-0.7,2.5-0.7
						l3.7-0.1v10.4c0,2.3,0,4.4-0.1,5.4c-0.1,0.8-0.2,1.3-0.7,1.4c-0.2,0.1-0.5,0.1-0.9,0.1c-0.3,0-0.4,0.1-0.4,0.2
						c0,0.2,0.2,0.2,0.5,0.2c1,0,2.8-0.1,3.4-0.1c0.7,0,2.5,0.1,4.1,0.1c0.3,0,0.5-0.1,0.5-0.2c0-0.1-0.1-0.2-0.4-0.2
						c-0.4,0-0.9,0-1.3-0.1c-0.7-0.1-0.9-0.6-1-1.4c-0.1-1.1-0.1-3.1-0.1-5.5v-10.4l3.1,0.1c2.3,0,3,0.7,3,1.4L333.2,313.5z"/>
					<path class="st1" d="M289.7,336.3c-0.2,0-0.8,0.2-2.4,0.2h-10.1c-0.8,0-1.8,0-2.5-0.1c-0.6,0-0.9-0.3-1.1-0.3
						c-0.2,0-0.2,0.2-0.3,0.5c0,0.2-0.5,2.5-0.5,2.9c0,0.3,0.1,0.4,0.2,0.4c0.2,0,0.2-0.1,0.3-0.3c0.1-0.2,0.2-0.5,0.4-0.9
						c0.4-0.6,1-0.7,2.5-0.7l3.6-0.1v10.4c0,2.3,0,4.3-0.1,5.4c-0.1,0.7-0.3,1.3-0.8,1.4c-0.2,0-0.5,0.1-0.9,0.1
						c-0.3,0-0.4,0.1-0.4,0.2c0,0.2,0.2,0.3,0.5,0.3c1,0,2.8-0.1,3.4-0.1c0.7,0,2.5,0.1,4.1,0.1c0.3,0,0.5-0.1,0.5-0.3
						c0-0.1-0.1-0.2-0.4-0.2c-0.4,0-0.9-0.1-1.3-0.1c-0.8-0.1-0.9-0.7-1-1.4c-0.1-1.1-0.1-3.1-0.1-5.4v-10.4l3.1,0.1
						c2.3,0.1,2.9,0.8,3,1.4l0,0.3c0,0.4,0.1,0.5,0.3,0.5c0.1,0,0.2-0.2,0.2-0.4c0-0.7,0.1-2.4,0.1-2.9
						C289.9,336.5,289.9,336.3,289.7,336.3z"/>
					<path class="st1" d="M341.1,352.5c-0.4,0-1-0.1-1.3-0.1c-0.8-0.1-1-0.6-1-1.3c-0.1-1.1-0.1-3.1-0.1-5.6v-4.5
						c0-3.9,0-4.6,0.1-5.4c0.1-0.9,0.3-1.3,0.9-1.4c0.3-0.1,0.5-0.1,0.8-0.1c0.2,0,0.4,0,0.4-0.3c0-0.2-0.2-0.2-0.6-0.2
						c-1,0-2.7,0.1-3.3,0.1c-0.7,0-2.6-0.1-3.5-0.1c-0.4,0-0.6,0-0.6,0.2c0,0.2,0.2,0.3,0.4,0.3c0.3,0,0.6,0,0.9,0.1
						c0.5,0.1,0.8,0.6,0.9,1.4c0.1,0.8,0.1,1.5,0.1,5.4v4.5c0,2.5,0,4.5-0.1,5.5c-0.1,0.8-0.2,1.2-0.7,1.3c-0.2,0-0.5,0.1-0.9,0.1
						c-0.3,0-0.4,0.1-0.4,0.2c0,0.2,0.2,0.3,0.5,0.3c1,0,2.8-0.1,3.4-0.1c0.7,0,2.5,0.1,4.2,0.1c0.3,0,0.5-0.1,0.5-0.3
						C341.5,352.6,341.4,352.5,341.1,352.5z"/>
					<path class="st1" d="M270.5,352.5c-0.3,0-0.7,0-1.1-0.1c-0.5-0.1-1.3-0.5-2.2-2.8c-1.6-3.9-5.7-14.3-6.3-15.7
						c-0.2-0.6-0.4-0.8-0.7-0.8c-0.2,0-0.4,0.3-0.7,1l-6.4,16c-0.5,1.3-1,2.1-2.2,2.3c-0.2,0-0.5,0.1-0.8,0.1c-0.2,0-0.3,0-0.3,0.2
						c0,0.2,0.2,0.3,0.5,0.3c1.3,0,2.7-0.1,3-0.1c0.8,0,1.9,0.1,2.7,0.1c0.3,0,0.4,0,0.4-0.3c0-0.2-0.1-0.2-0.4-0.2h-0.4
						c-0.8,0-1-0.3-1-0.8c0-0.3,0.1-0.9,0.4-1.6l1-2.5h6.7l1.6,4.3c0.1,0.3,0,0.5-0.2,0.6c-0.3,0-0.3,0.1-0.3,0.2
						c0,0.2,0.3,0.2,0.7,0.2c2,0,4.2,0,5.1,0c0.9,0,1.2,0,1.2-0.3C270.8,352.5,270.7,352.5,270.5,352.5z M259.2,339.3
						c0-0.1,0.1-0.2,0.2-0.2c0.1,0,0.1,0.1,0.2,0.2l2.2,5.6l0.6,1.5h-5.8l0.6-1.5L259.2,339.3z"/>
					<path class="st1" d="M366,353.8c-0.3,0-0.7,0-1.1-0.1c-0.5-0.1-1.3-0.5-2.2-2.8c-1.6-3.9-5.7-14.2-6.3-15.7
						c-0.3-0.6-0.4-0.8-0.6-0.8c-0.2,0-0.4,0.3-0.7,1l-6.4,16c-0.5,1.3-1,2.1-2.2,2.3c-0.2,0-0.6,0.1-0.8,0.1
						c-0.2,0-0.3,0.1-0.3,0.2c0,0.2,0.2,0.2,0.5,0.2c1.3,0,2.7-0.1,3-0.1c0.8,0,1.9,0.1,2.7,0.1c0.3,0,0.4-0.1,0.4-0.2
						c0-0.2-0.1-0.2-0.4-0.2h-0.4c-0.8,0-1-0.3-1-0.8c0-0.3,0.1-0.9,0.4-1.6l1-2.5h6.7l1.6,4.2c0.1,0.3,0,0.5-0.2,0.6
						c-0.3,0-0.4,0.1-0.4,0.2c0,0.2,0.3,0.2,0.8,0.2c2,0.1,4.2,0.1,5.1,0.1c1,0,1.2-0.1,1.2-0.2C366.3,353.9,366.2,353.8,366,353.8z
						 M354.7,340.7c0-0.1,0.1-0.2,0.1-0.2c0.1,0,0.1,0.1,0.2,0.2l2.3,5.6l0.6,1.5H352l0.6-1.5L354.7,340.7z"/>
				</g>
			</g>
		</g>
		<g>
			<g>
				<path class="st0" d="M84,313.7c0,0-23.1,0.4-25,0.5c0-1-0.1-2.7-0.1-2.8c0-3.5,1.2-6.8,12.4-14.3l12.1-8.1l-0.2-12.5l-1.6,1.2
					l-1,0.8c-4.6,3.5-6.5,4.9-10.2,7.2l-0.3,0.2c-6.5,4.2-11.3,7.3-14.7,12c-2.9-5.6-7.9-8.7-14.4-8.6c-10.6,0.2-17,8-16.8,20.3
					l0.3,15.5l59.6-1.1L84,313.7z M33.5,309.8c0-8.7,4.3-9.8,7.5-9.9c2.4-0.1,4.4,0.6,5.8,1.9c1.8,1.7,2.7,4.4,2.8,8.3
					c0,0,0.1,3,0.1,4.3c-1.7,0-14.3,0.3-16,0.3c0-1.3-0.1-4.3-0.1-4.3C33.5,310.1,33.5,310,33.5,309.8z"/>
				<polygon class="st0" points="28.1,253.5 27.9,254.5 26.5,263.7 85.5,272.6 87,262.4 				"/>
				<path class="st0" d="M107.2,199.7l-0.5-1.1c0,0-38.8,19-40.5,19.8c-0.9-1.7-17.8-34-17.8-34l-0.8,2.2L44,196.8
					c0,0,13.5,25.8,15.6,29.8c-4-1.4-23.3-8.4-23.3-8.4l-3.5,9.7l56.1,20.2l3.5-9.7c0,0-21.6-7.8-25.4-9.2c3.9-1.9,34.9-17,34.9-17
					L107.2,199.7z"/>
				<path class="st0" d="M136.2,155.9c0,0-42.1,9.3-44,9.7c-0.5-1.8-9.2-37.3-9.2-37.3l-1.3,2l-5.9,9c0,0,7,28.2,8.1,32.6
					c-3.6-2.4-20.6-13.6-20.6-13.6l-5.7,8.6l49.7,32.9l5.7-8.6c0,0-19.2-12.7-22.6-14.9c4.2-0.9,37.9-8.3,37.9-8.3L136.2,155.9z"/>
				<path class="st0" d="M127.9,122.6c-0.1-0.7-4.5-36-4.5-36l-1.5,1.5l-7.4,7.4c0,0,2.7,21.9,3,24.2c-2.3-0.3-24.2-2.9-24.2-2.9
					l-8.8,9c0,0,35.3,4,36,4.1c0.5,0.5,22.2,21.9,22.2,21.9l7.3-7.3C150,144.4,128.4,123.1,127.9,122.6z"/>
				<path class="st0" d="M197.2,74.2c-4.4-7-11.1-11.9-18.8-13.7c-8.1-1.9-16.6-0.3-24.6,4.7c-15.4,9.6-20.1,28.1-10.9,42.8
					c9.2,14.8,27.8,18.7,43.1,9.1c8-5,13.2-11.9,15.1-20.1C203,89.3,201.6,81.2,197.2,74.2z M191.1,95.5c-1.3,5.4-4.8,10.2-9.9,13.4
					c-5.1,3.2-10.9,4.2-16.3,3c-5.3-1.2-9.8-4.6-12.9-9.4c-3-4.9-4.1-10.5-2.8-15.7c1.3-5.4,4.8-10.1,9.9-13.3
					c5.2-3.2,11-4.3,16.4-3c5.2,1.2,9.8,4.6,12.9,9.5C191.3,84.7,192.3,90.3,191.1,95.5z"/>
				<path class="st0" d="M284.6,59.2l-6.1-35.5l-1,0.2l-9.2,1.6l5.9,34c1,6,0.7,9.5-1.3,12.2c-1.3,1.9-4.6,5.2-11.9,6.5
					c-4.7,0.8-8.7,0-12.3-2.5c-2.8-2-3.9-4.3-5-10.4l-5.9-34.5l-10.2,1.8l6.2,36.3c3,17.1,17.3,20.9,28.6,19c8.7-1.5,15-5,18.7-10.3
					C284.7,72.7,285.9,66.4,284.6,59.2z"/>
				<path class="st0" d="M347.8,27.7c0,0-4.1,37.8-4.6,42.6c-2.9-4.1-32.6-46.7-32.6-46.7l-8-0.9l-0.1,1L296,82.1l9.8,1.1
					c0,0,4.1-37.5,4.6-42.3c2.9,4.1,32.2,46.4,32.2,46.4l8.5,0.9l6.5-59.3L347.8,27.7z"/>
				<polygon class="st0" points="380.3,36 379.9,37 361.8,92.7 371.6,95.9 390.1,39.2 				"/>
				<path class="st0" d="M439.5,61.6c0,0-29.1,24.4-32.4,27.1c0.3-4.3,2.8-42.2,2.8-42.2l-9.4-4.8l-0.1,1.6l-4.2,63.7l2.7,1.4
					l49.8-42.2L439.5,61.6z"/>
				<path class="st0" d="M480.1,103.1l5.9-7.4L458.8,74l-0.6,0.8l-36.4,45.9l27.8,22.1l5.9-7.4c0,0-18.2-14.5-19.7-15.6
					c1.1-1.4,8.8-11.1,9.8-12.4c1.5,1.2,18.4,14.6,18.4,14.6l5.9-7.4c0,0-17-13.5-18.4-14.6c1.1-1.3,8.5-10.7,9.5-12
					C462.5,89.1,480.1,103.1,480.1,103.1z"/>
				<path class="st0" d="M511.8,123.4l-9.8-12.1l-0.8,0.6l-45.6,36.8l6.5,8c0,0,18-14.5,19.4-15.7c0.6,0.8,1.5,1.9,1.5,1.9
					c1.2,1.5,2.1,3,2.1,6c0,2.8-0.8,6.8-2.9,13.2l-4.6,13.9l7.8,9.7l0.9-3.2c1.5-5.6,2.1-7.9,3.6-12l0.1-0.3
					c2.5-7,4.4-12.3,4.4-17.9c0-0.2,0-0.4,0-0.6c5.7,2.6,11.5,1.9,16.6-2.1C519.3,143.1,519.6,133,511.8,123.4z M501.4,125.1
					c0.8,1,2.7,3.3,2.7,3.3c2.5,3.1,3.4,5.5,3.4,7.5c0,2.5-1.5,4.2-2.9,5.4c-1.9,1.6-3.8,2.3-5.7,2.1c-2.4-0.2-4.8-1.9-7.2-4.8
					c0,0-1.7-2.1-2.7-3.3C490.3,134.1,500.1,126.2,501.4,125.1z"/>
				<path class="st0" d="M547.5,176.7c-5.1-10-14.1-13.6-23-9.1c-8,4.1-8.7,12.9-9.3,20.7c-0.5,6.6-0.9,12.4-5.3,14.6
					c-1.3,0.6-3,0.7-4.5,0.1c-1.4-0.5-3.3-1.8-4.8-4.7c-2.4-4.8-2.2-10.4,0.6-16.4l1.3-2.7l-12.5,6.3l-0.1,0.5
					c-1.1,6.2-0.3,11.7,2.6,17.4c2.2,4.3,5.8,7.5,10,8.9c4.1,1.3,8.6,0.9,12.6-1.1c9.7-4.9,10.2-14.7,10.5-22.5
					c0.3-5.9,0.5-11,4.3-12.9c3-1.6,6.7,0.3,8.8,4.6c2,4,2.3,8.7,0.7,14l-0.7,2.3l11-5.6l0.1-0.6
					C550.4,185.6,549.6,180.8,547.5,176.7z"/>
				<polygon class="st0" points="560.5,209.1 559.5,209.4 503.8,227.7 507.1,237.5 563.7,218.9 				"/>
				<path class="st0" d="M568,229.8l-1,0.2l-8.3,1.4c0,0,3,17.8,3.3,19.7c-1.9,0.3-49.5,8.2-49.5,8.2l1.7,10.2
					c0,0,47.5-7.9,49.5-8.2c0.3,1.8,3.3,19.7,3.3,19.7l9.4-1.6L568,229.8z"/>
				<path class="st0" d="M576.7,283.3l-1.7,1.2c0,0-27.1,19.7-27.6,20.1c-0.7,0-31.1-1.2-31.1-1.2l-0.4,10.3c0,0,30.4,1.2,31,1.2
					c0.5,0.5,27.7,23.5,27.7,23.5l0.5-12.6c0,0-16.8-14.3-18.6-15.8c1.9-1.4,19.8-14.2,19.8-14.2L576.7,283.3z"/>
			</g>
			<g>
				<path class="st0" d="M69.7,358.2c0,5-4,9-9,9c-5,0-9-4.1-9-9c0-5,4-9,9-9C65.6,349.2,69.7,353.2,69.7,358.2z"/>
				<path class="st0" d="M548.4,358.2c0,5-4,9-9,9c-5,0-9-4.1-9-9c0-5,4-9,9-9C544.3,349.2,548.4,353.2,548.4,358.2z"/>
			</g>
			<g>
				<path class="st0" d="M119.3,420.3c0,0-26.9-4.8-29.2-5.3c0.9-2.2,11.2-27.4,11.2-27.4l-4.5-8.1l-0.9,0.5l-51.3,28.2l5,9.1
					c0,0,33.5-18.5,37.8-20.8c-1.7,4-10.1,24.3-10.1,24.3l1.1,2c0,0,21.6,3.7,25.9,4.4C100,429.6,66.5,448,66.5,448l5,9.1l52.3-28.7
					L119.3,420.3z"/>
				<path class="st0" d="M145.3,451.2l-16.6-16.5l-0.7,0.7l-41.4,41.5l16.6,16.6c6.5,6.5,14.3,9.9,22.6,9.8c7.7,0,15.3-3.2,20.8-8.7
					c5.7-5.7,8.9-13.3,8.9-21C155.6,465.6,152,457.8,145.3,451.2z M137.7,456.9c5.6,5.6,7.8,11.1,7.8,16.2c0,5.5-2.6,10.4-6.2,14.1
					c-5.3,5.3-17.6,11.1-29.9-1.1c0,0-6.5-6.4-8.6-8.6c1.3-1.4,27.4-27.4,28.7-28.8C130.6,449.9,137.7,456.9,137.7,456.9z"/>
				<path class="st0" d="M212.1,503.8c-5.2-7-9.7-11.2-15-14.3c-8.1-4.7-17-6.1-25.2-3.9c-7.8,2.1-14.5,7.3-18.8,14.7
					c-3.8,6.5-4.8,14.8-2.8,22.4c2.1,8,7.5,14.7,15.6,19.4c8.7,5.1,15.5,6,21,6.2l0.6,0l5.8-10l-1.9,0.1c-7.5,0.4-14.6-1.2-20.1-4.3
					c-11.5-6.7-15-18.4-8.8-29.2c2.9-4.9,7.3-8.4,12.5-9.8c5.5-1.5,11.6-0.5,17,2.6c5.5,3.2,9.8,7.8,13.8,14.8l0.9,1.6l5.7-9.8
					L212.1,503.8z"/>
				<path class="st0" d="M267.1,519.5c-6.9-5.4-12.3-8.3-18.2-9.9c-18.2-5-34.9,4.2-39.7,21.7c-2,7.2-0.8,15.6,3.1,22.4
					c4.1,7.2,11.1,12.3,20.1,14.8c9.7,2.6,16.5,1.8,21.9,0.6l0.6-0.1l3-11.2l-1.8,0.6c-7.1,2.3-14.4,2.6-20.5,1
					c-12.8-3.5-19.3-13.9-16-26c3.2-11.7,14.4-17.8,26.7-14.5c6.2,1.7,11.5,5,17.1,10.7l1.3,1.3l3-10.9L267.1,519.5z"/>
				<path class="st0" d="M323.5,561c-6.3,4-13.3,6.2-19.6,6.2c-13.3-0.1-22.2-8.5-22.1-21c0-5.7,2.2-10.9,6-14.7
					c4.1-4,9.8-6.2,16.1-6.2c6.4,0,12.4,1.9,19.3,6l1.5,0.9l0.1-11.3l-0.6-0.3c-8-3.4-14-4.9-20.1-5c-9.3-0.1-17.8,3.2-23.8,9.1
					c-5.7,5.7-8.9,13.5-9,22.1c-0.1,7.5,3.2,15.3,8.7,20.8c5.8,5.9,13.8,9.1,23.2,9.1c10.1,0.1,16.4-2.5,21.4-5l0.6-0.3l0.1-11.6
					L323.5,561z"/>
				<path class="st0" d="M378.4,555.6c0,0-23.5,5.2-25.4,5.7c-0.4-1.9-10.9-48.9-10.9-48.9l-1,0.2l-9.1,2l13,58.2l35.5-7.9
					L378.4,555.6z"/>
				<path class="st0" d="M412.4,518c0.4-1.6,8.9-36.3,8.9-36.3l-2,1l-9.4,4.6c0,0-5.9,24.6-6.4,26.8c-2.1-1-25.1-11.5-25.1-11.5
					l-11.4,5.6c0,0,32.6,14.8,34.1,15.5c-0.4,1.6-9.7,38.9-9.7,38.9l11.5-5.5c0,0,6.7-27.1,7.3-29.3c2.1,1,27.3,12.6,27.3,12.6
					l11.4-5.5C448.7,534.6,413.9,518.7,412.4,518z"/>
				<path class="st0" d="M507,485.2c0,0-37.9-5.9-39.5-6.2c-0.1-1.6-1.3-37.3-1.3-37.3l-1.6,1.4l-7.8,6.9c0,0,1,25.3,1.1,27.6
					c-2.3-0.4-27.3-4.3-27.3-4.3l-9.5,8.5c0,0,35.4,5.4,37,5.7c0.1,1.6,1.3,40.1,1.3,40.1l9.5-8.4c0,0-0.9-27.9-1-30.2
					c2.3,0.4,29.7,4.7,29.7,4.7L507,485.2z"/>
				<polygon class="st0" points="475.5,426.4 474.9,427.3 469.3,434.7 516.8,470.7 523,462.5 				"/>
				<path class="st0" d="M505.3,373.6l-0.7,1.4l-4,7.9c0,0,24.4,29.1,27.1,32.4c-4.3-0.3-42.2-2.8-42.2-2.8l-4.8,9.4l65.3,4.3
					l1.4-2.7L505.3,373.6z"/>
			</g>
		</g>
	</g>
</g>
</svg>
