<svg xmlns="http://www.w3.org/2000/svg" viewBox="0 0 604 75"><defs><style>.cls-1{fill:#fff;}.cls-2{fill:#541b86;}</style></defs><g id="レイヤー_3" data-name="レイヤー 3"><g id="白文字"><path class="cls-1" d="M40.52,13.5A24.55,24.55,0,1,1,16,38.05,24.57,24.57,0,0,1,40.52,13.5Z"/><path class="cls-2" d="M40.52,14.17A23.88,23.88,0,1,1,16.65,38.05,23.9,23.9,0,0,1,40.52,14.17Zm0,7.45A16.43,16.43,0,1,0,57,38.05,16.42,16.42,0,0,0,40.52,21.62Z"/><path class="cls-2" d="M51.89,27.87a12.9,12.9,0,0,1-11.37-4,12.87,12.87,0,0,1-11.36,4c-1.69,7-1,12.74,1,16.83a15.15,15.15,0,0,0,5.44,6,46.39,46.39,0,0,0,5,2.69,46.54,46.54,0,0,0,5-2.69,15.15,15.15,0,0,0,5.44-6C52.87,40.61,53.58,34.9,51.89,27.87Zm-11.37-1.8,3.87,2.41-.48.72-.76-.48c-.14.85-.38,2.12-.5,2.57h1.24v.87H37.16v-.87H38.4c-.12-.45-.36-1.72-.5-2.57l-.76.48-.48-.72Zm2.2,9.21a6,6,0,0,0-2.2.88,5.9,5.9,0,0,0-2.19-.88V33.44h4.39Zm4.16,1.79v6.26a7.66,7.66,0,0,0-6.12.29V37l.22-.15A5,5,0,0,1,46.88,37.07ZM40.28,37v6.64a7.63,7.63,0,0,0-6.11-.29V37.07a5,5,0,0,1,5.9-.24Zm-11.17-1.5c0-.65,0-1.33.08-2h8.32v1.75a5.48,5.48,0,0,0-3.63,1.07H29.12C29.11,36,29.11,35.74,29.11,35.48Zm.05,1.59h4.2v3.34H29.62A21,21,0,0,1,29.16,37.07Zm8.35,13.78c-.49-.28-1-.57-1.48-.88a14.41,14.41,0,0,1-5.09-5.66,17.32,17.32,0,0,1-1.12-3.09h3.54v3.47a6.06,6.06,0,0,1,4.15-1Zm5.21.46c-.73.4-1.47.77-2.2,1.12-.72-.35-1.46-.72-2.19-1.12V43.8a6.46,6.46,0,0,1,2.19.89,6.6,6.6,0,0,1,2.2-.89Zm7.39-7A14.35,14.35,0,0,1,45,50c-.48.31-1,.6-1.48.88V43.68a6.08,6.08,0,0,1,4.16,1V41.22h3.54A17.32,17.32,0,0,1,50.11,44.31Zm1.32-3.9H47.69V37.07h4.2A22.26,22.26,0,0,1,51.43,40.41Zm-4.26-4.15a5.49,5.49,0,0,0-3.64-1.07V33.44h8.33c0,.71.08,1.39.08,2,0,.26,0,.52,0,.78Z"/><path class="cls-2" d="M41.73,31.29c.15-.55.49-2.37.57-3.09l-1.78-1.1-1.78,1.1c.09.72.42,2.54.58,3.09Z"/><path class="cls-2" d="M35.46,38.52s0,0,0,0,0,0,0,0h-.12c-.07,0-.09-.06-.09-.12a2.57,2.57,0,0,1,0-.44v-.84a.05.05,0,0,1,0,0h.08a.33.33,0,0,1,.17.08.37.37,0,0,1,.13.31c0,.21-.09.34-.23.34s-.06,0-.06,0,0,0,0,0h0a.46.46,0,0,0,.5-.51.37.37,0,0,0-.12-.25.54.54,0,0,0-.38-.11h-.7s0,0,0,0h.09c.08,0,.1,0,.1.12a3.27,3.27,0,0,1,0,.44v.37a2.57,2.57,0,0,1,0,.44c0,.06,0,.11-.07.12h-.08s0,0,0,0,0,0,0,0h.66Z"/><path class="cls-2" d="M35.73,40.91h-.65s0,0,0,0,0,0,0,0h.09c.08,0,.1,0,.1.12v.81c0,.19,0,.35,0,.44s0,.11-.07.11H35.1s0,0,0,0,0,0,0,0h.66s0,0,0,0,0,0,0,0h-.13c-.07,0-.08,0-.09-.11s0-.25,0-.44v-.84a.05.05,0,0,1,0,0h.08a.27.27,0,0,1,.16.08.37.37,0,0,1,.14.31c0,.21-.1.34-.23.34s-.07,0-.07,0h.08a.46.46,0,0,0,.5-.51.37.37,0,0,0-.12-.25A.54.54,0,0,0,35.73,40.91Z"/><path class="cls-2" d="M36.45,36.68h.08a.1.1,0,0,1,.09.12v.81c0,.19,0,.36,0,.45s0,.1-.06.11h-.11s0,0,.05,0h.6s0,0,0,0H37a.1.1,0,0,1-.08-.11c0-.09,0-.26,0-.45v0h.18l.2.29a.92.92,0,0,0,.29.3.37.37,0,0,0,.22,0H38s0,0,0,0H38a.39.39,0,0,1-.24-.14c-.12-.13-.26-.31-.45-.55a.59.59,0,0,0,.28-.46.4.4,0,0,0-.14-.29.75.75,0,0,0-.41-.09h-.58s-.05,0-.05,0S36.43,36.68,36.45,36.68Zm.47.1s0,0,0,0H37c.12,0,.3.08.3.38a.36.36,0,0,1-.13.31.13.13,0,0,1-.12,0,.31.31,0,0,1-.11,0s0,0,0,0Z"/><path class="cls-2" d="M42.94,42.57h-.06a.38.38,0,0,1-.23-.13l-.45-.55a.6.6,0,0,0,.27-.47.38.38,0,0,0-.14-.29.82.82,0,0,0-.41-.09h-.58s0,0,0,0,0,0,0,0h.08c.07,0,.09.05.1.12V42c0,.2,0,.36,0,.45s0,.11-.06.11h-.08s0,0,0,0,0,0,0,0H42s0,0,0,0,0,0,0,0h-.1c-.06,0-.07-.05-.08-.11s0-.25,0-.45v0H42s0,0,0,0,.12.17.2.28a1,1,0,0,0,.29.31.41.41,0,0,0,.22,0h.22s0,0,0,0S43,42.57,42.94,42.57Zm-.88-.74a.21.21,0,0,1-.13,0,.2.2,0,0,1-.11,0s0,0,0,0v-.63s0,0,0,0h.06c.13,0,.3.09.3.38A.4.4,0,0,1,42.06,41.83Z"/><path class="cls-2" d="M39,36.92a.82.82,0,0,0,0,1.63.77.77,0,0,0,.73-.85A.69.69,0,0,0,39,36.92Zm0,1.52c-.29,0-.47-.34-.47-.77S38.8,37,39,37s.44.29.44.75S39.17,38.44,39.07,38.44Z"/><path class="cls-2" d="M45.53,36.92a.82.82,0,0,0,0,1.63.77.77,0,0,0,.73-.85A.69.69,0,0,0,45.53,36.92Zm0,1.52c-.28,0-.46-.34-.46-.77s.2-.65.37-.65.44.29.44.75S45.68,38.44,45.57,38.44Z"/><path class="cls-2" d="M41.36,37h.07c.06,0,.08,0,.08.12v.81c0,.19,0,.35,0,.44s0,.11,0,.12h-.07s0,0,0,0,0,0,0,0h.23l.39,0a.8.8,0,0,0,.62-.25.89.89,0,0,0,.2-.58.81.81,0,0,0-.18-.53.92.92,0,0,0-.74-.23h-.58S41.34,37,41.36,37Zm.44.54V37.1a.05.05,0,0,1,0,0l.1,0a.54.54,0,0,1,.45.21.84.84,0,0,1,.15.52.79.79,0,0,1-.13.52.42.42,0,0,1-.36.15c-.13,0-.19,0-.21-.08a.71.71,0,0,1,0-.16,3.7,3.7,0,0,1,0-.42Z"/><path class="cls-2" d="M44.32,38.17a1.79,1.79,0,0,0,0-.23s0,0,0,0,0,0,0,0a.16.16,0,0,1-.1.15.56.56,0,0,1-.22,0c-.23,0-.27,0-.27-.17v-.49s0,0,0,0h.33c.08,0,.11,0,.12.08a.25.25,0,0,1,0,.08s0,0,0,0,0,0,0,0a.76.76,0,0,1,0-.14.85.85,0,0,1,0-.15v0s0,0,0,0-.05,0-.11,0h-.37s0,0,0,0v-.53s0,0,0,0h.33c.11,0,.14,0,.15.07l0,.08s0,0,0,0l0,0a.71.71,0,0,0,0-.14c0-.1,0-.12,0-.14s0,0,0,0h-1s-.05,0-.05,0,0,0,0,0h.09a.12.12,0,0,1,.1.12v.81c0,.19,0,.36,0,.45s0,.1-.07.11h-.12s0,0,.05,0h.92C44.28,38.22,44.3,38.22,44.32,38.17Z"/><path class="cls-2" d="M38.3,39h.33c.11,0,.13,0,.15.07a.25.25,0,0,1,0,.08s0,0,0,0a0,0,0,0,0,0,0s0-.11,0-.13,0-.13,0-.14l0,0h-1s0,0,0,0,0,0,0,0h.09c.08,0,.1,0,.1.12a3.49,3.49,0,0,1,0,.44v.37a2.57,2.57,0,0,1,0,.44c0,.06,0,.11-.06.12h-.08s0,0,0,0,0,0,.05,0h.92c.09,0,.11,0,.12-.06a1.6,1.6,0,0,0,0-.23s0,0,0,0,0,0,0,0,0,.13-.1.15a.56.56,0,0,1-.22,0c-.23,0-.27,0-.28-.18v-.49l0,0h.33c.08,0,.11,0,.12.08a.25.25,0,0,1,0,.08l0,0s0,0,0,0,0-.1,0-.15,0-.13,0-.15,0,0,0,0,0,0,0,0l-.11,0H38.3a0,0,0,0,1,0,0V39S38.29,39,38.3,39Z"/><path class="cls-2" d="M43.24,39.15s0,0,0,0,0,0,0,0,0-.2,0-.24,0-.05,0-.05a.8.8,0,0,1-.2,0H42s-.07,0-.09,0,0,0,0,0,0,.21,0,.24,0,0,0,0l0,0,0-.08s.08,0,.2-.06h.3v.86c0,.19,0,.35,0,.44s0,.11-.06.12h-.07s0,0,0,0,0,0,0,0h.62s0,0,0,0l0,0h-.1c-.07,0-.08-.06-.09-.11s0-.26,0-.45V39H43c.18,0,.24.06.24.12Z"/><path class="cls-2" d="M39.68,41a1,1,0,0,1-.2,0h-1a.17.17,0,0,1-.09,0s0,0,0,0,0,.2,0,.23,0,0,0,0,0,0,0,0a.13.13,0,0,1,0-.07s.08,0,.2-.06h.3V42c0,.2,0,.36,0,.45s0,.11-.07.11h-.07s0,0,0,0,0,0,0,0h.61l0,0s0,0,0,0h-.11c-.06,0-.07-.05-.08-.11s0-.25,0-.45v-.85h.25c.19,0,.24.06.25.11v0s0,0,0,0,0,0,0,0,0-.2,0-.25S39.7,41,39.68,41Z"/><path class="cls-2" d="M43.89,42.35h-.11c-.06,0-.07-.05-.08-.11s0-.25,0-.45v-.37a3.38,3.38,0,0,1,0-.44c0-.07,0-.11.07-.12h.07s0,0,0,0h-.66s0,0,0,0h.07s.07,0,.07.12a3.38,3.38,0,0,1,0,.44v.37c0,.2,0,.36,0,.45s0,.1-.06.11h-.11s0,0,0,0h.62s0,0,0,0Z"/><path class="cls-2" d="M38.11,42.35H38s-.1,0-.18-.23-.47-1.17-.52-1.28,0-.07,0-.07,0,0-.06.08l-.52,1.31c0,.11-.08.18-.18.19h-.09s0,0,0,0h.47s0,0,0,0H36.9c-.06,0-.08,0-.08-.07a.39.39,0,0,1,0-.13l.08-.21h.55l.13.35s0,.05,0,.05l0,0s0,0,.06,0H38c.08,0,.1,0,.1,0Zm-.93-1.08v0s0,0,0,0l.18.45,0,.12H37l0-.12Z"/><path class="cls-2" d="M45.92,42.45h-.08c-.05,0-.11,0-.19-.22s-.46-1.17-.52-1.29,0-.06-.05-.06,0,0,0,.08l-.53,1.31c0,.1-.08.18-.17.19h-.07l0,0s0,0,0,0h.46s0,0,0,0,0,0,0,0h0c-.07,0-.09,0-.09-.06a.39.39,0,0,1,0-.13l.08-.21h.55l.13.35s0,.05,0,.05,0,0,0,0h.48c.07,0,.09,0,.09,0S45.94,42.45,45.92,42.45ZM45,41.38v0s0,0,0,0l.19.45,0,.12h-.47l0-.12Z"/><path class="cls-1" d="M22.85,39.17l-2,0c0-.08,0-.21,0-.22,0-.29.1-.56,1-1.17l1-.67v-1l-.14.1-.08.07c-.38.28-.54.4-.83.59h0a4.24,4.24,0,0,0-1.2,1,1.26,1.26,0,0,0-1.18-.7c-.87,0-1.39.65-1.38,1.66l0,1.27L22.87,40Zm-4.14-.32c0-.71.35-.8.62-.81a.61.61,0,0,1,.47.15.94.94,0,0,1,.22.68s0,.24,0,.35l-1.31,0c0-.11,0-.35,0-.35Z"/><polygon class="cls-1" points="18.27 34.24 18.26 34.32 18.14 35.07 22.97 35.8 23.1 34.97 18.27 34.24"/><path class="cls-1" d="M24.75,29.85l0-.09L21.4,31.38c-.08-.14-1.46-2.79-1.46-2.79l-.06.18-.3.83L20.85,32,19,31.35l-.29.8,4.59,1.65.29-.8-2.08-.75,2.85-1.39Z"/><path class="cls-1" d="M27.12,26.26l-3.6.79c0-.15-.76-3.05-.76-3.05l-.1.16-.49.73.66,2.67-1.69-1.11-.46.7,4.07,2.7.46-.71-1.84-1.22,3.1-.68Z"/><path class="cls-1" d="M26.44,23.53c0-.06-.37-3-.37-3L26,20.7l-.61.61s.23,1.79.25,2l-2-.23-.72.73,2.95.34,1.81,1.79.6-.6Z"/><path class="cls-1" d="M32.12,19.57a2.47,2.47,0,0,0-1.54-1.11,2.58,2.58,0,0,0-2,.38,2.5,2.5,0,1,0,2.64,4.25,2.64,2.64,0,0,0,1.23-1.65A2.48,2.48,0,0,0,32.12,19.57Zm-.51,1.75a1.76,1.76,0,0,1-.81,1.09,1.77,1.77,0,0,1-1.33.25,1.7,1.7,0,0,1-1.06-.78,1.68,1.68,0,0,1-.23-1.28A1.76,1.76,0,0,1,29,19.51a1.8,1.8,0,0,1,1.34-.25,1.76,1.76,0,0,1,1.28,2.06Z"/><path class="cls-1" d="M39.27,18.35l-.5-2.9h-.09l-.75.13.48,2.79a1.25,1.25,0,0,1-.1,1,1.44,1.44,0,0,1-1,.52,1.3,1.3,0,0,1-1-.2c-.23-.17-.32-.36-.4-.85L35.44,16l-.83.14.51,3a1.87,1.87,0,0,0,2.34,1.56A2.24,2.24,0,0,0,39,19.84,2,2,0,0,0,39.27,18.35Z"/><path class="cls-1" d="M44.43,15.77s-.33,3.09-.38,3.49c-.23-.34-2.67-3.82-2.67-3.82l-.65-.08v.09l-.52,4.77.8.08s.33-3.07.37-3.46c.24.33,2.64,3.79,2.64,3.79l.69.08.53-4.85Z"/><polygon class="cls-1" points="47.09 16.45 47.07 16.53 45.58 21.09 46.38 21.35 47.9 16.71 47.09 16.45"/><path class="cls-1" d="M51.94,18.54l-2.65,2.22c0-.36.23-3.46.23-3.46l-.76-.38V17l-.34,5.22.22.11,4.07-3.45Z"/><path class="cls-1" d="M55.26,21.93l.49-.61-2.23-1.76-.05.06-3,3.76,2.27,1.81.48-.61L51.63,23.3l.81-1L54,23.48l.48-.61-1.51-1.2c.09-.1.69-.87.78-1Z"/><path class="cls-1" d="M57.86,23.6l-.8-1-.07.06-3.73,3,.53.65,1.6-1.28a1.22,1.22,0,0,0,.12.16.66.66,0,0,1,.17.48,3.57,3.57,0,0,1-.24,1.09l-.37,1.13.63.79.08-.26a9.87,9.87,0,0,1,.29-1v0A4.62,4.62,0,0,0,56.44,26v-.05a1.24,1.24,0,0,0,1.35-.18A1.41,1.41,0,0,0,57.86,23.6Zm-.85.14.22.27a1.06,1.06,0,0,1,.27.61.56.56,0,0,1-.23.44.6.6,0,0,1-.47.17.93.93,0,0,1-.59-.4L56,24.56Z"/><path class="cls-1" d="M60.78,28a1.35,1.35,0,0,0-1.88-.75c-.66.34-.72,1.06-.76,1.7s-.08,1-.44,1.19a.43.43,0,0,1-.37,0,.71.71,0,0,1-.39-.39A1.48,1.48,0,0,1,57,28.38l.1-.22-1,.52v0a2.14,2.14,0,0,0,.22,1.42,1.4,1.4,0,0,0,.82.73,1.33,1.33,0,0,0,1-.09A1.89,1.89,0,0,0,59,28.94c0-.48,0-.9.35-1.06s.55,0,.72.38a1.47,1.47,0,0,1,.06,1.14l-.06.19.9-.46v0A2,2,0,0,0,60.78,28Z"/><polygon class="cls-1" points="61.84 30.61 61.76 30.64 57.2 32.13 57.47 32.94 62.1 31.41 61.84 30.61"/><path class="cls-1" d="M62.45,32.31h-.08l-.69.11s.25,1.46.27,1.61l-4.05.68.14.83,4.05-.67c0,.14.27,1.6.27,1.6l.76-.12Z"/><path class="cls-1" d="M63.16,36.68l-.14.1-2.26,1.64-2.54-.09,0,.84,2.54.1L63,41.2l0-1s-1.38-1.17-1.52-1.3l1.61-1.16Z"/><path class="cls-1" d="M21.68,42.81a.74.74,0,1,1-.74-.74A.74.74,0,0,1,21.68,42.81Z"/><path class="cls-1" d="M60.84,42.81a.73.73,0,0,1-.73.74.74.74,0,1,1,0-1.48A.73.73,0,0,1,60.84,42.81Z"/><path class="cls-1" d="M25.74,47.89l-2.39-.43.92-2.24-.37-.67-.07,0-4.2,2.31.4.74L23.12,46c-.13.33-.83,2-.83,2l.1.17,2.12.36-3.09,1.7.4.74,4.28-2.35Z"/><path class="cls-1" d="M27.87,50.41l-1.36-1.35-.06.07-3.38,3.39,1.36,1.36a2.54,2.54,0,0,0,1.85.8,2.46,2.46,0,0,0,2.43-2.42A2.62,2.62,0,0,0,27.87,50.41Zm-.63.48a1.86,1.86,0,0,1,.64,1.32,1.69,1.69,0,0,1-3,1.06l-.71-.7,2.35-2.36Z"/><path class="cls-1" d="M33.33,54.72a4.15,4.15,0,0,0-1.23-1.17A2.76,2.76,0,0,0,30,53.23a2.56,2.56,0,0,0-1.54,1.21,2.46,2.46,0,0,0-.23,1.83,2.66,2.66,0,0,0,1.28,1.59,3.55,3.55,0,0,0,1.72.51h.05l.48-.82h-.16A3,3,0,0,1,30,57.21a1.68,1.68,0,0,1-.72-2.39,1.71,1.71,0,0,1,1-.8,1.87,1.87,0,0,1,1.39.21,3.07,3.07,0,0,1,1.12,1.21l.08.13.46-.8Z"/><path class="cls-1" d="M37.83,56a4.07,4.07,0,0,0-1.48-.81A2.54,2.54,0,0,0,33.09,57a2.51,2.51,0,0,0,.25,1.83A2.67,2.67,0,0,0,35,60a3.52,3.52,0,0,0,1.79,0h.06l.24-.91-.15,0a3,3,0,0,1-1.67.08A1.67,1.67,0,0,1,34,57.14,1.7,1.7,0,0,1,36.13,56a3,3,0,0,1,1.4.88l.1.1.25-.89Z"/><path class="cls-1" d="M42.45,59.4a3.08,3.08,0,0,1-1.61.51A1.67,1.67,0,0,1,39,58.19a1.69,1.69,0,0,1,.49-1.2,1.84,1.84,0,0,1,1.31-.51,3,3,0,0,1,1.58.5l.13.07v-.93l0,0a4.27,4.27,0,0,0-1.64-.41,2.71,2.71,0,0,0-2,.75,2.55,2.55,0,0,0-.74,1.81,2.48,2.48,0,0,0,.71,1.7,2.66,2.66,0,0,0,1.9.75,3.71,3.71,0,0,0,1.75-.41l0,0v-.94Z"/><path class="cls-1" d="M46.94,59l-2.08.47c0-.16-.89-4-.89-4l-.08,0-.75.17,1.07,4.76,2.9-.65Z"/><path class="cls-1" d="M49.72,55.88l.73-3-.17.08-.76.37s-.49,2-.53,2.2l-2.06-1-.93.46,2.78,1.27L48,59.52l.94-.45s.55-2.22.6-2.4l2.23,1,.93-.45Z"/><path class="cls-1" d="M57.46,53.2l-3.23-.51c0-.13-.11-3-.11-3l-.13.12-.64.56s.08,2.07.09,2.26l-2.24-.35-.77.69,3,.46c0,.14.11,3.29.11,3.29l.78-.7s-.08-2.28-.08-2.47l2.43.38Z"/><polygon class="cls-1" points="54.89 48.39 54.84 48.46 54.38 49.07 58.26 52.02 58.77 51.34 54.89 48.39"/><path class="cls-1" d="M57.32,44.07l-.06.11-.33.65,2.22,2.65-3.45-.23-.38.77,5.34.35.11-.23Z"/><path class="cls-1" d="M90.81,37.37l.35-1a98.56,98.56,0,0,0,3.38-12.12l3.08,1a86.32,86.32,0,0,1-3.79,12.16h7.89V40.1H76.92V37.37Zm-.1-16.69h10.15v2.65h-23V20.68h9.94v-4.5h3Zm-7,15.8A81.1,81.1,0,0,0,80.91,25.4l2.88-.86a73.19,73.19,0,0,1,3,11.08Z"/><path class="cls-1" d="M124.13,33.82a21.79,21.79,0,0,0,5.32,5.08l-1.57,2.78a28.13,28.13,0,0,1-5.25-5.48A18.21,18.21,0,0,1,116.18,42l-1.8-2.37a15.36,15.36,0,0,0,6.67-5.9,33.24,33.24,0,0,1-2.55-5.77c-.21.44-.51,1-.88,1.64l-1.88-2.43a17.88,17.88,0,0,0,.9-1.81H113.3a34.33,34.33,0,0,1-3.15,2.89h5l1.18,1.35a29,29,0,0,1-3.8,3v1c2-.29,3.51-.54,4.6-.74l.08,2.16c-1.32.3-2.88.6-4.68.89v3.89a2.06,2.06,0,0,1-.6,1.73,2.81,2.81,0,0,1-1.69.37c-1.21,0-2.27,0-3.19-.14l-.51-2.34a21.57,21.57,0,0,0,2.83.25q.48,0,.48-.54V36.24q-2.85.4-5.73.67l-.6-2.46c2.15-.16,4.18-.34,6.1-.56l.23,0v-2a9.86,9.86,0,0,0,2.24-1.51h-4.88A28.74,28.74,0,0,1,104.48,32L103.06,30a31.58,31.58,0,0,0,6.83-4.61h-6.37V23h4.69V20.74h-3.78V18.53h3.78V16.18h2.64v2.35H114v2a18.75,18.75,0,0,0,1.42-2.71l2.16,1.45a25.84,25.84,0,0,1-2.4,3.78h1.5v2.1a38.52,38.52,0,0,0,2.39-8.87l2.73.38c-.26,1.4-.55,2.76-.88,4.1H129V23.3H127A29.85,29.85,0,0,1,124.13,33.82ZM113.89,20.74h-3V23h1.37A23.78,23.78,0,0,0,113.89,20.74Zm8.57,10.38a27.54,27.54,0,0,0,1.78-7.82h-4c-.16.53-.27.89-.34,1.08A30.24,30.24,0,0,0,122.46,31.12Z"/><path class="cls-1" d="M145.06,25.65a22.05,22.05,0,0,0,3.45,6.55,23,23,0,0,0,7.61,6.71l-1.88,2.72a25,25,0,0,1-8-7.47A26.23,26.23,0,0,1,143.5,29a20,20,0,0,1-3.23,6.41,19.39,19.39,0,0,1-7.94,6.29l-1.85-2.41a18.15,18.15,0,0,0,8-6.37,16.27,16.27,0,0,0,3-7.29H131V22.79h10.62V16.45h3v6.34H155.5v2.86Z"/><path class="cls-1" d="M172,30.65v1h11v2.42H172v5.33a2.27,2.27,0,0,1-.64,1.82,3.74,3.74,0,0,1-2.4.57c-1.37,0-2.62-.06-3.76-.17L164.58,39c1.77.19,3,.29,3.67.29.39,0,.63-.1.73-.28a1.45,1.45,0,0,0,.1-.62V34.08h-11.7V31.66h11.7v-2.1a24.5,24.5,0,0,0,4-2H161.94V25.19h15.3l1.36,1.64A73.57,73.57,0,0,1,172,30.65Zm-9.18-10.1a13.6,13.6,0,0,0-1.87-3.24l2.5-1.08a19.85,19.85,0,0,1,2.21,3.35l-2.07,1h6l-.12-.27A17.48,17.48,0,0,0,167.57,17l2.54-1a16.73,16.73,0,0,1,2.16,3.52l-2.52,1.08h4.44a34.78,34.78,0,0,0,2.58-4.5l2.91.92a36.49,36.49,0,0,1-2.46,3.58h4.85v5.07h-2.88V22.87H161.11v2.75h-2.86V20.55Z"/><path class="cls-1" d="M199.4,17h3v5.07h6.25v2.7h-6.25v13a3.4,3.4,0,0,1-.51,2.09,3,3,0,0,1-2.42.76c-1.38,0-2.74,0-4.07-.13l-.71-2.86c1.38.13,2.68.19,3.91.19.41,0,.65-.09.72-.28a1.33,1.33,0,0,0,.07-.47v-11a41.89,41.89,0,0,1-5.62,6.66,32.54,32.54,0,0,1-6.66,4.8L185.23,35a34,34,0,0,0,12.11-10.24H185.8v-2.7h13.6Z"/><path class="cls-1" d="M222.67,24.08a52.26,52.26,0,0,0-8.65-3l.92-2.82a38.82,38.82,0,0,1,8.73,2.94Zm-8.32,13.1q6.51-.55,10-2.33a14.18,14.18,0,0,0,6.26-6.47A28.53,28.53,0,0,0,232.9,21l2.52,1.86a31.09,31.09,0,0,1-2.58,7.74,16.09,16.09,0,0,1-8.37,7.57,35.19,35.19,0,0,1-9.5,2.1Z"/><path class="cls-1" d="M240.12,24.54H262a23.48,23.48,0,0,1-2.4,9,11.64,11.64,0,0,1-3.42,3.88q-3.48,2.48-10.11,3.4l-1.33-2.68c3.91-.37,6.89-1.27,9-2.68a10.76,10.76,0,0,0,4.62-8.2H240.12ZM242,18.09h17.37v2.7H242Z"/><path class="cls-1" d="M277.49,40.62V27.12a41.59,41.59,0,0,1-9.13,4.53L266.76,29A39.71,39.71,0,0,0,277,23.92a42.21,42.21,0,0,0,7.69-7l2.54,1.59a48.07,48.07,0,0,1-6.66,6.31V40.62Z"/><path class="cls-1" d="M303.54,24.08a52.26,52.26,0,0,0-8.65-3l.92-2.82a38.82,38.82,0,0,1,8.73,2.94Zm-8.32,13.1q6.51-.55,10-2.33a14.18,14.18,0,0,0,6.26-6.47A28.53,28.53,0,0,0,313.77,21l2.52,1.86a31.09,31.09,0,0,1-2.58,7.74,16.09,16.09,0,0,1-8.37,7.57,35.1,35.1,0,0,1-9.5,2.1Z"/><path class="cls-1" d="M322.32,21V16.18h2.81V21h2.35v2.62h-2.35v3.95l1.75-.63.5,2.42c-.87.35-1.55.62-2,.8l-.21.08v9.13a2.34,2.34,0,0,1-.58,1.79,2.69,2.69,0,0,1-1.86.5,16.56,16.56,0,0,1-2.71-.21l-.54-2.83a18,18,0,0,0,2.25.25.77.77,0,0,0,.5-.11.82.82,0,0,0,.13-.54v-7c-.86.28-1.81.56-2.85.85l-.75-2.7c1.29-.28,2.35-.54,3.17-.78l.43-.13V23.66h-3.2V21Zm8.43,3.22H335a19.56,19.56,0,0,0-1.38-3.64l2.37-.75a17.35,17.35,0,0,1,1.49,3.75l-2.19.64h3.24a33.78,33.78,0,0,0,2.18-4.93l2.7,1a27.21,27.21,0,0,1-2.08,3.93h3.24v5.45h-2.18l.48.46A23.27,23.27,0,0,1,338.43,36a27.46,27.46,0,0,0,6.62,3l-1.48,2.53a28.17,28.17,0,0,1-7.15-3.79,26,26,0,0,1-8.19,4.09l-1.51-2.29a21.57,21.57,0,0,0,7.61-3.46,22.29,22.29,0,0,1-3.9-4.87h-1.12V29.75h-1.7V24.26h2.64a2.14,2.14,0,0,1-.08-.34,13.47,13.47,0,0,0-1.08-3l2.37-.67a20.21,20.21,0,0,1,1.22,3.42Zm-2.93-6.33A92.12,92.12,0,0,0,342,16.37l1.69,2.21a120.28,120.28,0,0,1-15.17,1.75Zm2.45,8.68v2.25h11.19l.38.37V26.61Zm3.08,4.62a20.83,20.83,0,0,0,3,3.25,19.63,19.63,0,0,0,2.91-3.25Z"/><path class="cls-1" d="M360.23,27.57V29h9.07V30.9h-9.07v1.43h11.44v2.21h-8.62A33.75,33.75,0,0,0,372,38.48l-1.7,2.42a29.74,29.74,0,0,1-10-5.87V41.8h-2.86V35.1a22.11,22.11,0,0,1-9.83,6.21L345.9,39A26.31,26.31,0,0,0,355,34.54h-8.9V32.33h11.26V30.9h-8.89V29h8.89V27.57h-10v-2h6.16a15.7,15.7,0,0,0-1.43-2.67h-5.45V20.74h4.27l-.05-.1a21.87,21.87,0,0,0-1.93-3.19l2.54-.94a14.64,14.64,0,0,1,2.12,3.33l-2.27.9H355V16.18h2.67v4.56H360V16.18h2.64v4.56h3.48l-2-.78a19.77,19.77,0,0,0,1.75-3.62l2.83.79a21.16,21.16,0,0,1-2.07,3.61h4.52V22.9H365.4a17.76,17.76,0,0,1-1.4,2.67h6.43v2Zm-3.82-2h4.68a17,17,0,0,0,1.31-2.67h-7.21A15.94,15.94,0,0,1,356.41,25.57Z"/><path class="cls-1" d="M374.45,19.28H395l2,1.77a34.32,34.32,0,0,1-4.84,7.72,34.12,34.12,0,0,1-5,4.77q2.24,2.4,3.64,4.23l-2.43,2.13A70,70,0,0,0,376.74,28L378.82,26c1.94,1.56,4.06,3.42,6.35,5.61a29.6,29.6,0,0,0,6.05-6.21,21,21,0,0,0,2-3.39H374.45Z"/><path class="cls-1" d="M401.07,35.54h23.46V38.4H401.07Zm2.68-15.07h18.11V23.3H403.75Z"/><path class="cls-1" d="M432.59,23.18h13.24q-.31,5.84-1.25,13.19l-.12.92h5V39.8H430.09V37.29h11.54q1-7.08,1.21-11.6H432.59Z"/><path class="cls-1" d="M455.88,18.88h20.63l1.7,1.44a16.26,16.26,0,0,1-1.92,4.59,13.41,13.41,0,0,1-6.66,5.21L468,27.86a10.55,10.55,0,0,0,5.09-3.31,8.21,8.21,0,0,0,1.67-3H455.88Zm8.44,5.69h3v2.26a21.43,21.43,0,0,1-1.14,7.87,11.46,11.46,0,0,1-5.58,5.74l-2.17-2.29a10.25,10.25,0,0,0,4.17-3.24A8,8,0,0,0,464,31.82a26.73,26.73,0,0,0,.37-5Z"/><path class="cls-1" d="M486.71,18.24h3V23q0,6.88-1,10a13.17,13.17,0,0,1-5.69,7l-2-2.35a13.36,13.36,0,0,0,4.22-4.37,14,14,0,0,0,1.36-5.12c.12-1.21.18-2.93.18-5.17Zm6.74-.77h3V36.18a14.16,14.16,0,0,0,4.6-3.86,18.72,18.72,0,0,0,3.22-6.49l2.32,2.24a20.69,20.69,0,0,1-3.61,6.67,19.48,19.48,0,0,1-7.56,5.49l-1.93-1.67Z"/><path class="cls-1" d="M524.45,17h3v5.32h5.28V25h-5.28v.83q0,6.7-1.92,10.08t-6.54,5l-1.85-2.34c3.06-1.05,5.1-2.68,6.14-4.87.8-1.69,1.21-4.29,1.21-7.79V25h-8v7.54h-3V25h-4.91v-2.7h4.91V17.21h3v5.12h8Z"/><path class="cls-1" d="M547.06,40.62V27.12a41.59,41.59,0,0,1-9.13,4.53L536.33,29a39.71,39.71,0,0,0,10.23-5.06,42.21,42.21,0,0,0,7.69-7l2.54,1.59a48.07,48.07,0,0,1-6.66,6.31V40.62Z"/><path class="cls-1" d="M568.4,16.93h3.06v7.56a89.94,89.94,0,0,1,13,5L583,32.28a90,90,0,0,0-11.55-4.78V40.88H568.4Z"/><path class="cls-1" d="M78.74,47.82v7c0,2.67,1.16,3.7,3.46,3.7s3.43-1.08,3.43-3.71v-7h1.73v7c0,3.28-1.68,5.24-5.16,5.24S77,58.36,77,54.8v-7Z"/><path class="cls-1" d="M92,51.78a4.78,4.78,0,0,1,2.4.66V54a4.42,4.42,0,0,0-2.29-.85c-.73,0-1,.3-1,.6s.11.62,1.57,1.45c1,.55,2.12,1.27,2.12,2.56,0,.94-.7,2.26-2.72,2.26a5.29,5.29,0,0,1-2.65-.72v-1.7a4.68,4.68,0,0,0,2.53,1c.88,0,1.22-.37,1.22-.75s-.14-.65-1.89-1.67c-1.05-.64-1.81-1.29-1.81-2.39A2.25,2.25,0,0,1,92,51.78Z"/><path class="cls-1" d="M103.5,55.88V56H97.91a2.48,2.48,0,0,0,2.57,2.49,4.92,4.92,0,0,0,2.88-1V59.1a5.21,5.21,0,0,1-3.1.93,3.92,3.92,0,0,1-3.94-4.18c0-2.3,1.44-4.07,3.71-4.07C102,51.78,103.5,53.28,103.5,55.88Zm-1.56-.78a1.84,1.84,0,0,0-1.92-2,2.08,2.08,0,0,0-2.07,2Z"/><path class="cls-1" d="M111.17,52.68l-.83,1.38a2.59,2.59,0,0,0-1.52-.78A2.23,2.23,0,0,0,107,55.65v4.23h-1.58V51.94H107v1.82c.9-1.48,1.62-2,2.36-2A2.76,2.76,0,0,1,111.17,52.68Z"/><path class="cls-1" d="M114.26,49.31a2.8,2.8,0,0,1-2.07,2.74v-.34a2.18,2.18,0,0,0,.73-1.76,1.16,1.16,0,0,1-.92-1.14,1.12,1.12,0,0,1,1.06-1.14C113.77,47.67,114.26,48.39,114.26,49.31Z"/><path class="cls-1" d="M120.24,51.78a4.81,4.81,0,0,1,2.4.66V54a4.42,4.42,0,0,0-2.3-.85c-.72,0-1,.3-1,.6s.11.62,1.58,1.45c1,.55,2.12,1.27,2.12,2.56,0,.94-.71,2.26-2.72,2.26a5.27,5.27,0,0,1-2.65-.72v-1.7a4.65,4.65,0,0,0,2.52,1c.89,0,1.22-.37,1.22-.75s-.14-.65-1.89-1.67c-1-.64-1.8-1.29-1.8-2.39A2.25,2.25,0,0,1,120.24,51.78Z"/><path class="cls-1" d="M140.56,50.46a8.63,8.63,0,0,0-4.28-1.26,4.66,4.66,0,1,0,.07,9.32,7.48,7.48,0,0,0,2.73-.54v-2.5h-2.32V54h4.05V59a10.31,10.31,0,0,1-4.42,1c-4.58,0-6.59-3.23-6.59-6.07a6.26,6.26,0,0,1,6.52-6.29,9.57,9.57,0,0,1,4.24,1Z"/><path class="cls-1" d="M144.8,51.94v4.74c0,1.55.64,2,1.63,2a2.38,2.38,0,0,0,1.91-1.12V51.94h1.57v7.94h-1.57v-1A3.46,3.46,0,0,1,145.92,60c-1.43,0-2.69-.76-2.69-3.58V51.94Z"/><path class="cls-1" d="M154.1,49.52a.93.93,0,1,1-1.85,0,.93.93,0,0,1,.91-.92A.94.94,0,0,1,154.1,49.52ZM154,51.94v7.94h-1.57V51.94Z"/><path class="cls-1" d="M163.13,47.82V59.88H160A3.78,3.78,0,0,1,155.92,56a3.88,3.88,0,0,1,3.92-4.17,4.84,4.84,0,0,1,1.72.32V47.82ZM160.32,58.5h1.24v-5a3.19,3.19,0,0,0-1.57-.37c-1.42,0-2.48,1-2.48,2.81C157.51,57.58,158.52,58.5,160.32,58.5Z"/><path class="cls-1" d="M172.27,55.88V56h-5.59a2.48,2.48,0,0,0,2.57,2.49,4.92,4.92,0,0,0,2.88-1V59.1A5.21,5.21,0,0,1,169,60a3.92,3.92,0,0,1-3.94-4.18c0-2.3,1.44-4.07,3.71-4.07C170.78,51.78,172.27,53.28,172.27,55.88Zm-1.56-.78a1.84,1.84,0,0,0-1.92-2,2.08,2.08,0,0,0-2.07,2Z"/><path class="cls-1" d="M183.42,47.84v1.47a2.47,2.47,0,0,0-.92-.14c-1,0-1.45.56-1.45,2.15v.62h1.42v1.42h-1.42v6.52h-1.59V53.36h-1.11V51.94h1.11v-.63c0-2.34,1.13-3.63,2.8-3.63A4.33,4.33,0,0,1,183.42,47.84Z"/><path class="cls-1" d="M192.08,55.92a4.24,4.24,0,1,1-4.2-4.14A4.06,4.06,0,0,1,192.08,55.92Zm-6.87,0a2.63,2.63,0,1,0,2.56-2.72A2.54,2.54,0,0,0,185.21,55.92Z"/><path class="cls-1" d="M199.73,52.68l-.83,1.38a2.57,2.57,0,0,0-1.52-.78,2.24,2.24,0,0,0-1.87,2.37v4.23h-1.57V51.94h1.57v1.82c.9-1.48,1.63-2,2.37-2A2.76,2.76,0,0,1,199.73,52.68Z"/><path class="cls-1" d="M218.73,53.83a6.19,6.19,0,0,1-6.59,6.2,6.19,6.19,0,1,1,6.59-6.2Zm-11.16.06a4.5,4.5,0,0,0,4.61,4.52c2.56,0,4.77-1.52,4.77-4.6a4.54,4.54,0,0,0-4.67-4.52A4.42,4.42,0,0,0,207.57,53.89Z"/><path class="cls-1" d="M227.54,55.09v4.79H226V55.12c0-1.64-.77-2-1.62-2a2.38,2.38,0,0,0-1.91,1.11v5.68h-1.57V51.94h1.57v1a3.39,3.39,0,0,1,2.42-1.17C226.55,51.78,227.54,53,227.54,55.09Z"/><path class="cls-1" d="M231.5,47.82V59.88h-1.58V47.82Z"/><path class="cls-1" d="M235.69,49.52a.93.93,0,1,1-1.86,0,.94.94,0,0,1,.92-.92A1,1,0,0,1,235.69,49.52Zm-.15,2.42v7.94H234V51.94Z"/><path class="cls-1" d="M244.7,55.09v4.79h-1.57V55.12c0-1.64-.78-2-1.63-2a2.4,2.4,0,0,0-1.91,1.11v5.68H238V51.94h1.57v1A3.39,3.39,0,0,1,242,51.78C243.71,51.78,244.7,53,244.7,55.09Z"/><path class="cls-1" d="M253.75,55.88V56h-5.59a2.48,2.48,0,0,0,2.57,2.49,4.92,4.92,0,0,0,2.88-1V59.1a5.23,5.23,0,0,1-3.1.93,3.92,3.92,0,0,1-3.94-4.18c0-2.3,1.43-4.07,3.71-4.07C252.26,51.78,253.75,53.28,253.75,55.88Zm-1.56-.78a1.84,1.84,0,0,0-1.92-2,2.08,2.08,0,0,0-2.07,2Z"/><path class="cls-1" d="M271.21,48.66v1.82A8.51,8.51,0,0,0,267,49.27a4.61,4.61,0,0,0-4.77,4.62A4.51,4.51,0,0,0,267,58.43a7.66,7.66,0,0,0,4.31-1.35V59A9,9,0,0,1,267,60a6.15,6.15,0,0,1-6.49-6.16,6.31,6.31,0,0,1,6.53-6.2A10.24,10.24,0,0,1,271.21,48.66Z"/><path class="cls-1" d="M275,47.82V59.88h-1.57V47.82Z"/><path class="cls-1" d="M282.56,54.34v4c0,.25.09.37.3.37a1.77,1.77,0,0,0,.83-.42v1.13A3,3,0,0,1,282,60a1,1,0,0,1-1.07-.81,3.41,3.41,0,0,1-2.14.81,1.93,1.93,0,0,1-1.95-1.94c0-1.45,1-2,4.1-3v-.45c0-1-.49-1.37-1.43-1.37a3.29,3.29,0,0,0-2.51,1.3V52.86a3.32,3.32,0,0,1,2.64-1.08C281.5,51.78,282.56,52.83,282.56,54.34Zm-2.95,4.58a2,2,0,0,0,1.37-.65V56c-1.82.6-2.5,1.12-2.5,1.86A1.08,1.08,0,0,0,279.61,58.92Z"/><path class="cls-1" d="M287.31,51.78a4.78,4.78,0,0,1,2.4.66V54a4.42,4.42,0,0,0-2.29-.85c-.73,0-1,.3-1,.6s.11.62,1.57,1.45c1,.55,2.12,1.27,2.12,2.56,0,.94-.7,2.26-2.72,2.26a5.32,5.32,0,0,1-2.65-.72v-1.7a4.68,4.68,0,0,0,2.53,1c.88,0,1.22-.37,1.22-.75s-.14-.65-1.89-1.67c-1-.64-1.81-1.29-1.81-2.39A2.26,2.26,0,0,1,287.31,51.78Z"/><path class="cls-1" d="M294.29,51.78a4.82,4.82,0,0,1,2.41.66V54a4.45,4.45,0,0,0-2.3-.85c-.73,0-1,.3-1,.6s.11.62,1.57,1.45c1,.55,2.13,1.27,2.13,2.56,0,.94-.71,2.26-2.73,2.26a5.32,5.32,0,0,1-2.65-.72v-1.7a4.71,4.71,0,0,0,2.53,1c.88,0,1.22-.37,1.22-.75s-.14-.65-1.89-1.67c-1-.64-1.8-1.29-1.8-2.39A2.25,2.25,0,0,1,294.29,51.78Z"/><path class="cls-1" d="M305.78,55.88V56H300.2a2.46,2.46,0,0,0,2.56,2.49,4.92,4.92,0,0,0,2.88-1V59.1a5.18,5.18,0,0,1-3.09.93,3.92,3.92,0,0,1-3.94-4.18c0-2.3,1.43-4.07,3.71-4.07C304.3,51.78,305.78,53.28,305.78,55.88Zm-1.55-.78a1.85,1.85,0,0,0-1.93-2,2.08,2.08,0,0,0-2.07,2Z"/><path class="cls-1" d="M309.92,51.78a4.78,4.78,0,0,1,2.4.66V54a4.42,4.42,0,0,0-2.3-.85c-.72,0-1,.3-1,.6s.1.62,1.57,1.45c1,.55,2.12,1.27,2.12,2.56,0,.94-.71,2.26-2.72,2.26a5.27,5.27,0,0,1-2.65-.72v-1.7a4.65,4.65,0,0,0,2.52,1c.89,0,1.22-.37,1.22-.75s-.14-.65-1.89-1.67c-1-.64-1.8-1.29-1.8-2.39A2.25,2.25,0,0,1,309.92,51.78Z"/></g></g></svg>