<?xml version="1.0" encoding="UTF-8"?>
<svg id="JP" xmlns="http://www.w3.org/2000/svg" viewBox="0 0 598 74">
  <g id="_白文字" data-name="白文字">
    <g>
      <path d="M92.47,34.37l.36-1.01c1.18-3.23,2.3-7.27,3.38-12.12l3.08,.97c-1.12,4.63-2.39,8.69-3.79,12.16h7.88v2.72h-24.8v-2.72h13.89Zm-.09-16.69h10.15v2.65h-23.05v-2.65h9.94v-4.5h2.96v4.5Zm-7.06,15.79c-.76-4.19-1.68-7.89-2.75-11.08l2.88-.86c1.11,3.01,2.11,6.7,2.97,11.08l-3.11,.86Z" fill="#fff"/>
      <path d="M126.33,30.82c1.33,1.85,3.11,3.54,5.32,5.08l-1.57,2.78c-1.86-1.45-3.61-3.27-5.25-5.48-1.85,2.59-4,4.51-6.45,5.78l-1.8-2.37c2.56-1.1,4.79-3.06,6.67-5.9-1.02-1.82-1.87-3.74-2.55-5.78-.21,.44-.5,.99-.88,1.65l-1.88-2.43c.35-.61,.65-1.22,.91-1.8h-3.34c-.87,.91-1.92,1.87-3.15,2.88h5.04l1.18,1.36c-1.08,1.02-2.35,2.01-3.8,2.97v.96c1.98-.29,3.52-.54,4.61-.74l.08,2.16c-1.33,.3-2.89,.6-4.69,.89v3.88c0,.85-.2,1.43-.59,1.74-.32,.25-.88,.37-1.7,.37-1.2,0-2.26-.05-3.19-.14l-.51-2.34c1.15,.17,2.09,.25,2.83,.25,.32,0,.49-.18,.49-.54v-2.8c-1.9,.26-3.82,.49-5.74,.67l-.59-2.46c2.15-.16,4.18-.35,6.09-.57l.24-.03v-1.99c.87-.44,1.61-.94,2.24-1.51h-4.88c-.82,.56-1.74,1.12-2.78,1.67l-1.42-2.08c2.24-1.08,4.51-2.61,6.83-4.61h-6.37v-2.32h4.69v-2.29h-3.78v-2.21h3.78v-2.34h2.65v2.34h3.19v1.99c.54-.84,1.01-1.75,1.42-2.71l2.16,1.45c-.59,1.17-1.39,2.43-2.4,3.78h1.5v2.11c1.04-2.48,1.84-5.44,2.38-8.87l2.74,.38c-.26,1.4-.56,2.76-.88,4.09h8.06v2.57h-2.07c-.45,4.24-1.39,7.74-2.82,10.52Zm-10.24-13.08h-3.04v2.29h1.37c.57-.68,1.13-1.45,1.67-2.29Zm8.57,10.38c.84-1.97,1.44-4.57,1.78-7.82h-3.99c-.16,.53-.27,.89-.34,1.08,.56,2.29,1.41,4.54,2.55,6.74Z" fill="#fff"/>
      <path d="M147.8,22.65c.61,2.05,1.75,4.24,3.45,6.55,2.06,2.83,4.6,5.06,7.61,6.71l-1.88,2.71c-3.19-1.88-5.84-4.37-7.98-7.46-1.15-1.69-2.07-3.4-2.76-5.15-.69,2.35-1.77,4.49-3.23,6.41-2.14,2.84-4.79,4.94-7.94,6.29l-1.86-2.41c3.3-1.38,5.96-3.5,7.99-6.37,1.7-2.42,2.71-4.85,3.03-7.29h-10.5v-2.86h10.62v-6.34h3.04v6.34h10.85v2.86h-10.44Z" fill="#fff"/>
      <path d="M175.24,27.65v1.01h11.02v2.42h-11.02v5.33c0,.84-.21,1.45-.63,1.82-.44,.38-1.24,.57-2.41,.57-1.37,0-2.62-.06-3.75-.17l-.59-2.66c1.76,.19,2.99,.29,3.67,.29,.39,0,.63-.09,.72-.28,.07-.14,.1-.35,.1-.62v-4.28h-11.7v-2.42h11.7v-2.11c1.6-.66,2.93-1.33,3.99-2.03h-11.14v-2.34h15.31l1.36,1.65c-2.47,1.58-4.69,2.85-6.63,3.82Zm-9.17-10.1c-.46-1.13-1.08-2.21-1.87-3.24l2.5-1.08c.76,.91,1.5,2.03,2.21,3.34l-2.08,.97h5.98c-.04-.1-.08-.19-.12-.28-.49-1.17-1.11-2.28-1.84-3.33l2.54-1c.8,.98,1.52,2.16,2.16,3.53l-2.51,1.08h4.44c.94-1.38,1.8-2.88,2.58-4.5l2.91,.92c-.75,1.25-1.58,2.45-2.46,3.58h4.86v5.07h-2.88v-2.75h-18.08v2.75h-2.86v-5.07h4.54Z" fill="#fff"/>
      <path d="M203.21,14.01h3.01v5.07h6.25v2.7h-6.25v13.02c0,.96-.17,1.66-.51,2.09-.4,.51-1.2,.76-2.42,.76-1.38,0-2.73-.04-4.07-.13l-.71-2.86c1.38,.12,2.68,.18,3.91,.18,.41,0,.65-.09,.72-.28,.04-.1,.07-.26,.07-.47v-10.98c-1.71,2.5-3.58,4.72-5.62,6.66-1.84,1.76-4.06,3.36-6.66,4.8l-1.88-2.57c4.85-2.47,8.89-5.88,12.11-10.24h-11.54v-2.7h13.6v-5.07Z" fill="#fff"/>
      <path d="M225.95,21.08c-2.77-1.24-5.66-2.23-8.65-2.97l.92-2.83c3.47,.79,6.38,1.77,8.73,2.95l-1,2.86Zm-8.32,13.1c4.34-.37,7.67-1.15,9.98-2.33,2.72-1.4,4.81-3.56,6.27-6.46,.95-1.88,1.72-4.33,2.3-7.37l2.53,1.86c-.71,3.25-1.57,5.83-2.58,7.74-1.83,3.48-4.62,6.01-8.37,7.57-2.37,.98-5.54,1.69-9.5,2.11l-.62-3.11Z" fill="#fff"/>
      <path d="M242.32,21.54h21.92c-.39,3.83-1.18,6.82-2.4,8.98-.91,1.62-2.05,2.92-3.42,3.88-2.32,1.65-5.69,2.78-10.11,3.4l-1.33-2.67c3.9-.38,6.89-1.27,8.96-2.69,2.69-1.82,4.23-4.55,4.62-8.2h-18.24v-2.7Zm1.88-6.45h17.36v2.7h-17.36v-2.7Z" fill="#fff"/>
      <path d="M279.15,37.63v-13.5c-2.67,1.79-5.71,3.3-9.14,4.53l-1.59-2.67c3.89-1.31,7.3-2.99,10.23-5.05,2.88-2.03,5.44-4.35,7.69-6.96l2.54,1.59c-1.99,2.29-4.21,4.39-6.66,6.3v15.77h-3.07Z" fill="#fff"/>
      <path d="M303.04,21.08c-2.77-1.24-5.66-2.23-8.65-2.97l.92-2.83c3.47,.79,6.38,1.77,8.73,2.95l-1,2.86Zm-8.32,13.1c4.34-.37,7.67-1.15,9.98-2.33,2.72-1.4,4.81-3.56,6.27-6.46,.95-1.88,1.72-4.33,2.3-7.37l2.53,1.86c-.71,3.25-1.57,5.83-2.58,7.74-1.83,3.48-4.62,6.01-8.37,7.57-2.37,.98-5.54,1.69-9.5,2.11l-.62-3.11Z" fill="#fff"/>
      <path d="M323.44,18.04v-4.86h2.8v4.86h2.36v2.62h-2.36v3.95c.47-.16,1.06-.37,1.75-.63l.5,2.42c-.87,.35-1.55,.62-2.04,.8-.08,.03-.15,.05-.21,.08v9.13c0,.84-.19,1.44-.58,1.79-.36,.33-.98,.5-1.86,.5-.97,0-1.87-.07-2.71-.21l-.54-2.83c1.11,.17,1.86,.25,2.25,.25,.26,0,.43-.04,.5-.12,.09-.1,.13-.28,.13-.54v-7c-.86,.28-1.81,.56-2.86,.84l-.75-2.7c1.3-.28,2.36-.54,3.17-.78,.18-.05,.33-.1,.43-.13v-4.83h-3.2v-2.62h3.2Zm8.42,3.22h4.23c-.35-1.29-.81-2.51-1.38-3.65l2.37-.75c.64,1.19,1.14,2.44,1.49,3.75l-2.19,.65h3.24c.84-1.55,1.57-3.2,2.19-4.94l2.7,1c-.64,1.46-1.33,2.78-2.08,3.94h3.24v5.45h-2.18l.49,.46c-1.17,2.18-2.64,4.12-4.41,5.83,1.9,1.22,4.1,2.22,6.62,3.01l-1.49,2.53c-2.48-.88-4.87-2.14-7.15-3.79-2.54,1.88-5.27,3.24-8.19,4.09l-1.51-2.29c2.84-.69,5.38-1.85,7.61-3.46-1.43-1.32-2.73-2.94-3.9-4.87h-1.12v-1.47h-1.7v-5.49h2.63c-.03-.1-.05-.21-.08-.34-.26-1.11-.62-2.1-1.08-2.97l2.37-.67c.52,1.11,.93,2.25,1.22,3.42l-1.93,.57Zm-2.92-6.33c5.42-.23,10.16-.75,14.2-1.57l1.7,2.21c-4.92,.9-9.98,1.48-15.18,1.75l-.72-2.4Zm2.45,8.67v2.25h11.19l.38,.37v-2.62h-11.57Zm3.08,4.62c.88,1.2,1.86,2.29,2.96,3.25,1.24-1.14,2.21-2.22,2.91-3.25h-5.87Z" fill="#fff"/>
      <path d="M361.89,24.57v1.4h9.07v1.93h-9.07v1.43h11.44v2.21h-8.62c2.5,1.62,5.48,2.93,8.92,3.94l-1.7,2.42c-3.98-1.44-7.32-3.4-10.04-5.87v6.77h-2.86v-6.7c-2.47,2.78-5.74,4.85-9.83,6.21l-1.65-2.29c3.61-1.04,6.64-2.53,9.11-4.48h-8.9v-2.21h11.27v-1.43h-8.9v-1.93h8.9v-1.4h-10v-2h6.16c-.45-1.04-.93-1.93-1.43-2.67h-5.45v-2.16h4.28l-.05-.09c-.61-1.22-1.26-2.29-1.94-3.2l2.54-.93c.8,.92,1.5,2.03,2.12,3.33l-2.26,.9h3.67v-4.55h2.67v4.55h2.29v-4.55h2.65v4.55h3.47l-1.99-.78c.61-.95,1.19-2.15,1.75-3.62l2.83,.79c-.75,1.58-1.44,2.78-2.07,3.61h4.52v2.16h-5.73c-.4,.96-.87,1.85-1.41,2.67h6.44v2h-10.2Zm-3.82-2h4.67c.52-.84,.96-1.73,1.32-2.67h-7.21c.44,.75,.85,1.65,1.22,2.67Z" fill="#fff"/>
      <path d="M378.26,16.28h20.57l1.96,1.78c-1.36,2.93-2.97,5.5-4.84,7.71-1.45,1.7-3.12,3.3-5.01,4.78,1.49,1.6,2.7,3.01,3.63,4.23l-2.42,2.13c-3.07-4.08-6.94-8.03-11.6-11.86l2.08-2.08c1.95,1.55,4.07,3.42,6.36,5.61,2.38-1.83,4.39-3.9,6.04-6.21,.79-1.12,1.44-2.24,1.96-3.38h-18.73v-2.7Z" fill="#fff"/>
      <path d="M403.27,32.54h23.46v2.86h-23.46v-2.86Zm2.67-15.07h18.11v2.83h-18.11v-2.83Z" fill="#fff"/>
      <path d="M434.79,20.19h13.24c-.21,3.89-.63,8.28-1.25,13.19l-.12,.92h4.98v2.5h-19.35v-2.5h11.54c.68-4.73,1.08-8.6,1.21-11.61h-10.25v-2.5Z" fill="#fff"/>
      <path d="M456.47,15.88h20.63l1.7,1.43c-.49,1.83-1.13,3.37-1.92,4.59-1.48,2.33-3.7,4.06-6.66,5.21l-1.66-2.26c2.04-.61,3.74-1.71,5.09-3.3,.8-.94,1.36-1.93,1.67-2.97h-18.85v-2.7Zm8.44,5.69h3.01v2.26c0,3.4-.38,6.02-1.13,7.87-.96,2.35-2.82,4.26-5.58,5.74l-2.17-2.29c1.9-.9,3.29-1.98,4.17-3.24,.68-.97,1.12-2,1.33-3.09,.25-1.25,.37-2.92,.37-5.01v-2.24Z" fill="#fff"/>
      <path d="M487.29,15.24h2.96v4.79c0,4.59-.34,7.94-1.03,10.06-.9,2.8-2.8,5.13-5.69,7l-2.01-2.34c2-1.4,3.41-2.86,4.23-4.37,.68-1.27,1.14-2.98,1.36-5.12,.12-1.21,.18-2.94,.18-5.17v-4.84Zm6.74-.76h2.96v18.7c1.75-.9,3.28-2.19,4.59-3.86,1.44-1.83,2.51-3.99,3.22-6.49l2.32,2.24c-.88,2.61-2.08,4.83-3.61,6.67-1.92,2.33-4.44,4.15-7.56,5.49l-1.93-1.67V14.47Z" fill="#fff"/>
      <path d="M525.57,14.01h2.96v5.32h5.28v2.7h-5.28v.83c0,4.47-.64,7.84-1.92,10.08-1.24,2.16-3.42,3.81-6.54,4.96l-1.84-2.34c3.05-1.05,5.1-2.68,6.13-4.87,.81-1.69,1.21-4.29,1.21-7.79v-.87h-7.99v7.54h-2.96v-7.54h-4.91v-2.7h4.91v-5.12h2.96v5.12h7.99v-5.32Z" fill="#fff"/>
      <path d="M547.64,37.63v-13.5c-2.67,1.79-5.71,3.3-9.14,4.53l-1.59-2.67c3.89-1.31,7.3-2.99,10.23-5.05,2.88-2.03,5.44-4.35,7.69-6.96l2.54,1.59c-1.99,2.29-4.21,4.39-6.66,6.3v15.77h-3.07Z" fill="#fff"/>
      <path d="M566.82,13.93h3.07v7.56c5.24,1.61,9.58,3.26,13.02,4.95l-1.47,2.84c-3.3-1.68-7.15-3.27-11.54-4.78v13.37h-3.07V13.93Z" fill="#fff"/>
      <path d="M82.88,44.53c2.58,0,3.93,1.71,3.93,3.61,0,1.5-.74,2.62-2.17,3.19,.76,.49,1.12,.8,2.37,2.7l2.28,3.46h-2.2l-2.05-3.19c-1.31-2.05-2.13-2.45-3.04-2.45h-.84v5.64h-1.86v-12.96h3.57Zm-1.71,5.68h1.2c1.35,0,2.55-.34,2.55-2.07,0-1.25-.76-1.98-2.17-1.98h-1.58v4.05Z" fill="#fff"/>
      <path d="M92.68,46.36c0,.53-.46,1.01-1.01,1.01s-.99-.51-.99-1.01,.42-.99,.99-.99,1.01,.46,1.01,.99Zm-.15,2.6v8.53h-1.69v-8.53h1.69Z" fill="#fff"/>
      <path d="M97.53,44.53v12.96h-1.71v-12.96h1.71Zm5.87,4.43l-3.69,4.16,4.43,4.37h-2.26l-4.27-4.35,3.78-4.18h2.01Z" fill="#fff"/>
      <path d="M107.48,44.53v12.96h-1.71v-12.96h1.71Zm5.87,4.43l-3.69,4.16,4.43,4.37h-2.26l-4.27-4.35,3.78-4.18h2.01Z" fill="#fff"/>
      <path d="M116.67,48.96l2.37,4.81,2.2-4.81h1.82l-6.04,12.9h-1.8l2.91-6.19-3.38-6.71h1.92Z" fill="#fff"/>
      <path d="M133.07,53.24c0,3.12-2.55,4.43-4.58,4.43-3.02,0-4.54-2.34-4.54-4.37,0-2.55,1.79-4.5,4.6-4.5,2.56,0,4.52,1.79,4.52,4.45Zm-7.39,0c0,1.82,1.23,2.91,2.85,2.91s2.81-1.23,2.81-2.93c0-2.01-1.42-2.91-2.91-2.91-1.56,0-2.75,1.12-2.75,2.93Z" fill="#fff"/>
      <path d="M154.95,50.99c0,3.46-2.58,6.67-7.09,6.67-4.1,0-6.84-3.06-6.84-6.61s2.43-6.69,6.93-6.69c4.12,0,6.99,2.94,6.99,6.63Zm-12.01,.06c0,2.87,2.3,4.86,4.96,4.86s5.13-1.63,5.13-4.94c0-2.2-1.69-4.86-5.02-4.86s-5.07,2.18-5.07,4.94Z" fill="#fff"/>
      <path d="M164.85,52.34v5.15h-1.69v-5.11c0-1.77-.84-2.18-1.75-2.18-.78,0-1.54,.46-2.05,1.2v6.1h-1.69v-8.53h1.69v1.08c.76-.87,1.82-1.25,2.6-1.25,1.82,0,2.89,1.29,2.89,3.55Z" fill="#fff"/>
      <path d="M169.39,44.53v12.96h-1.69v-12.96h1.69Z" fill="#fff"/>
      <path d="M174.12,46.36c0,.53-.46,1.01-1.01,1.01s-.99-.51-.99-1.01,.42-.99,.99-.99,1.01,.46,1.01,.99Zm-.15,2.6v8.53h-1.69v-8.53h1.69Z" fill="#fff"/>
      <path d="M184.06,52.34v5.15h-1.69v-5.11c0-1.77-.84-2.18-1.75-2.18-.78,0-1.54,.46-2.05,1.2v6.1h-1.69v-8.53h1.69v1.08c.76-.87,1.82-1.25,2.6-1.25,1.82,0,2.89,1.29,2.89,3.55Z" fill="#fff"/>
      <path d="M194.12,53.2v.17h-6c.11,1.61,1.16,2.68,2.75,2.68,1.1,0,2.18-.38,3.1-1.04v1.65c-1.12,.74-2.11,1.01-3.32,1.01-2.28,0-4.24-1.69-4.24-4.5,0-2.47,1.54-4.37,3.99-4.37,2.13,0,3.72,1.61,3.72,4.41Zm-1.67-.84c-.08-1.31-.8-2.11-2.07-2.11s-2.13,.93-2.22,2.11h4.29Z" fill="#fff"/>
      <path d="M213.65,45.43v1.96c-1.39-.78-2.91-1.29-4.48-1.29-3.17,0-5.13,2.41-5.13,4.96s1.88,4.88,5.11,4.88c1.69,0,3.23-.51,4.64-1.44v2.03c-1.52,.82-3.08,1.14-4.71,1.14-4.77,0-6.97-3.59-6.97-6.63,0-3.8,3.15-6.67,7.01-6.67,1.44,0,2.98,.36,4.54,1.06Z" fill="#fff"/>
      <path d="M218.05,44.53v12.96h-1.69v-12.96h1.69Z" fill="#fff"/>
      <path d="M227.33,51.54v4.29c0,.27,.1,.4,.32,.4,.17,0,.49-.15,.89-.46v1.22c-.65,.44-1.22,.67-1.77,.67-.61,0-1.01-.25-1.16-.87-.74,.59-1.52,.87-2.3,.87-1.22,0-2.09-.97-2.09-2.09,0-1.56,1.06-2.11,4.41-3.23v-.47c0-1.06-.53-1.48-1.54-1.48-.93,0-1.88,.44-2.7,1.41v-1.84c.67-.78,1.63-1.16,2.83-1.16,1.96,0,3.1,1.12,3.1,2.75Zm-3.17,4.92c.53,0,1.03-.27,1.48-.7v-2.49c-1.96,.65-2.7,1.2-2.7,1.99,0,.67,.49,1.2,1.22,1.2Z" fill="#fff"/>
      <path d="M232.99,48.79c.87,0,1.73,.23,2.58,.7v1.69c-.97-.59-1.69-.91-2.47-.91s-1.08,.32-1.08,.65c0,.42,.11,.67,1.69,1.56,1.03,.59,2.28,1.37,2.28,2.75,0,1.01-.76,2.43-2.93,2.43-.93,0-1.58-.15-2.85-.78v-1.82c.8,.63,1.92,1.12,2.72,1.12,.95,0,1.31-.4,1.31-.8,0-.53-.15-.7-2.03-1.8-1.12-.68-1.94-1.39-1.94-2.56,0-1.29,1.14-2.22,2.72-2.22Z" fill="#fff"/>
      <path d="M241.2,48.79c.87,0,1.73,.23,2.58,.7v1.69c-.97-.59-1.69-.91-2.47-.91s-1.08,.32-1.08,.65c0,.42,.11,.67,1.69,1.56,1.03,.59,2.28,1.37,2.28,2.75,0,1.01-.76,2.43-2.93,2.43-.93,0-1.58-.15-2.85-.78v-1.82c.8,.63,1.92,1.12,2.72,1.12,.95,0,1.31-.4,1.31-.8,0-.53-.15-.7-2.03-1.8-1.12-.68-1.94-1.39-1.94-2.56,0-1.29,1.14-2.22,2.72-2.22Z" fill="#fff"/>
      <path d="M253.76,53.2v.17h-6c.11,1.61,1.16,2.68,2.75,2.68,1.1,0,2.18-.38,3.1-1.04v1.65c-1.12,.74-2.11,1.01-3.32,1.01-2.28,0-4.24-1.69-4.24-4.5,0-2.47,1.54-4.37,3.99-4.37,2.13,0,3.72,1.61,3.72,4.41Zm-1.67-.84c-.08-1.31-.8-2.11-2.07-2.11s-2.13,.93-2.22,2.11h4.29Z" fill="#fff"/>
      <path d="M258.6,48.79c.87,0,1.73,.23,2.58,.7v1.69c-.97-.59-1.69-.91-2.47-.91s-1.08,.32-1.08,.65c0,.42,.11,.67,1.69,1.56,1.03,.59,2.28,1.37,2.28,2.75,0,1.01-.76,2.43-2.93,2.43-.93,0-1.58-.15-2.85-.78v-1.82c.8,.63,1.92,1.12,2.72,1.12,.95,0,1.31-.4,1.31-.8,0-.53-.15-.7-2.03-1.8-1.12-.68-1.94-1.39-1.94-2.56,0-1.29,1.14-2.22,2.72-2.22Z" fill="#fff"/>
      <path d="M271.9,44.53v7.5c0,2.87,1.25,3.97,3.72,3.97s3.69-1.16,3.69-3.99v-7.49h1.86v7.49c0,3.53-1.8,5.64-5.55,5.64s-5.58-1.8-5.58-5.62v-7.5h1.86Z" fill="#fff"/>
      <path d="M286.13,48.79c.87,0,1.73,.23,2.58,.7v1.69c-.97-.59-1.69-.91-2.47-.91s-1.08,.32-1.08,.65c0,.42,.11,.67,1.69,1.56,1.03,.59,2.28,1.37,2.28,2.75,0,1.01-.76,2.43-2.93,2.43-.93,0-1.58-.15-2.85-.78v-1.82c.8,.63,1.92,1.12,2.72,1.12,.95,0,1.31-.4,1.31-.8,0-.53-.15-.7-2.03-1.8-1.12-.68-1.94-1.39-1.94-2.56,0-1.29,1.14-2.22,2.72-2.22Z" fill="#fff"/>
      <path d="M298.68,53.2v.17h-6c.11,1.61,1.16,2.68,2.75,2.68,1.1,0,2.18-.38,3.1-1.04v1.65c-1.12,.74-2.11,1.01-3.32,1.01-2.28,0-4.24-1.69-4.24-4.5,0-2.47,1.54-4.37,3.99-4.37,2.13,0,3.72,1.61,3.72,4.41Zm-1.67-.84c-.08-1.31-.8-2.11-2.07-2.11s-2.13,.93-2.22,2.11h4.29Z" fill="#fff"/>
      <path d="M307.73,49.76l-.89,1.48c-.49-.47-1.16-.84-1.63-.84-.84,0-2.01,.95-2.01,2.55v4.54h-1.69v-8.53h1.69v1.96c.97-1.6,1.75-2.13,2.55-2.13,.7,0,1.42,.4,1.99,.97Z" fill="#fff"/>
      <path d="M326.94,47.37c-1.48-.87-3.13-1.35-4.6-1.35-2.79,0-5.03,2.13-5.03,5s2.13,5.01,5.11,5.01c.99,0,1.5-.11,2.93-.57v-2.7h-2.49v-1.63h4.35v5.47c-1.61,.74-3.13,1.06-4.75,1.06-4.92,0-7.09-3.48-7.09-6.54,0-3.63,2.77-6.76,7.01-6.76,1.48,0,2.64,.27,4.56,1.1v1.9Z" fill="#fff"/>
      <path d="M331.91,48.96v5.09c0,1.67,.68,2.2,1.75,2.2,.8,0,1.54-.46,2.05-1.2v-6.1h1.69v8.53h-1.69v-1.08c-.74,.8-1.73,1.25-2.6,1.25-1.54,0-2.89-.82-2.89-3.86v-4.84h1.69Z" fill="#fff"/>
      <path d="M342.55,46.36c0,.53-.46,1.01-1.01,1.01s-.99-.51-.99-1.01,.42-.99,.99-.99,1.01,.46,1.01,.99Zm-.15,2.6v8.53h-1.69v-8.53h1.69Z" fill="#fff"/>
      <path d="M352.5,44.53v12.96h-3.36c-3.27,0-4.39-2.36-4.39-4.22,0-2.91,2.01-4.48,4.22-4.48,.74,0,1.31,.15,1.84,.34v-4.6h1.69Zm-3.02,11.47h1.33v-5.34c-.53-.29-1.04-.4-1.69-.4-1.52,0-2.66,1.08-2.66,3.02,0,1.73,1.08,2.72,3.02,2.72Z" fill="#fff"/>
      <path d="M362.63,53.2v.17h-6c.11,1.61,1.16,2.68,2.75,2.68,1.1,0,2.18-.38,3.1-1.04v1.65c-1.12,.74-2.11,1.01-3.32,1.01-2.28,0-4.24-1.69-4.24-4.5,0-2.47,1.54-4.37,3.99-4.37,2.13,0,3.72,1.61,3.72,4.41Zm-1.67-.84c-.08-1.31-.8-2.11-2.07-2.11s-2.13,.93-2.22,2.11h4.29Z" fill="#fff"/>
    </g>
  </g>
  <g>
    <path d="M40.9,12.25c13.51,0,24.5,10.99,24.5,24.5s-10.99,24.5-24.5,24.5-24.5-10.99-24.5-24.5S27.39,12.25,40.9,12.25Z" fill="#fff"/>
    <g>
      <g>
        <path d="M40.9,12.92c13.14,0,23.83,10.69,23.83,23.84s-10.69,23.83-23.83,23.83-23.83-10.69-23.83-23.83S27.76,12.92,40.9,12.92Zm0,7.44c-9.05,0-16.4,7.34-16.4,16.4s7.34,16.4,16.4,16.4,16.4-7.34,16.4-16.4-7.34-16.4-16.4-16.4Z" fill="#541b86"/>
        <g>
          <g>
            <path d="M52.24,26.59c-3.95,.78-8.34-.87-11.34-3.96-3,3.09-7.39,4.74-11.34,3.96-1.69,7.01-.99,12.72,.95,16.79,1.41,2.97,3.85,5.05,5.43,6.04,1.56,.97,3.27,1.91,4.96,2.68,1.68-.78,3.4-1.71,4.96-2.68,1.58-.98,4.02-3.07,5.43-6.04,1.94-4.08,2.64-9.78,.95-16.79Zm-11.34-1.79l3.86,2.4-.48,.72-.76-.47c-.14,.85-.37,2.12-.5,2.57h1.24v.86h-6.72v-.86h1.24c-.12-.45-.36-1.72-.5-2.57l-.76,.47-.48-.72,3.86-2.4Zm2.19,9.19c-.83,.15-1.59,.47-2.19,.87-.6-.41-1.37-.72-2.19-.87v-1.84h4.38v1.84Zm4.15,1.78v6.25c-2.05-.83-4.4-.55-6.1,.3v-6.63l.21-.14c1.55-1.04,4.08-1.27,5.89,.24Zm-6.58-.09v6.63c-1.7-.85-4.06-1.13-6.1-.3v-6.25c1.81-1.5,4.34-1.27,5.89-.24l.21,.14Zm-11.16-1.49c0-.65,.03-1.33,.08-2.04h8.31v1.75c-1.22-.07-2.5,.23-3.63,1.06h-4.75c0-.25-.01-.51-.01-.77Zm.05,1.58h4.19v3.34h-3.73c-.22-1-.39-2.11-.46-3.34Zm8.34,13.76c-.49-.28-.99-.58-1.48-.88-1.65-1.03-3.85-3.05-5.09-5.65-.41-.85-.8-1.88-1.12-3.08h3.53v3.47c1.22-.88,2.73-1.15,4.15-1.02v7.17Zm5.2,.45c-.73,.4-1.47,.78-2.19,1.12-.72-.34-1.46-.72-2.19-1.12v-7.49c.83,.18,1.59,.49,2.19,.89,.6-.41,1.36-.72,2.19-.89v7.49Zm7.38-6.99c-1.24,2.6-3.44,4.63-5.09,5.65-.48,.3-.98,.6-1.48,.88v-7.17c1.42-.13,2.93,.14,4.15,1.02v-3.47h3.53c-.32,1.2-.71,2.23-1.12,3.08Zm1.31-3.89h-3.73v-3.34h4.19c-.08,1.23-.24,2.34-.46,3.34Zm-4.25-4.15c-1.12-.84-2.41-1.13-3.63-1.06v-1.75h8.31c.05,.71,.08,1.39,.08,2.04,0,.26,0,.52,0,.77h-4.75Z" fill="#541b86"/>
            <path d="M42.1,30.01c.15-.56,.49-2.37,.57-3.08l-1.78-1.1-1.78,1.1c.09,.71,.42,2.53,.57,3.08h2.41Z" fill="#541b86"/>
          </g>
          <g>
            <path d="M35.85,37.22s.04,0,.04-.02c0,0-.01-.02-.04-.02-.03,0-.09,0-.12,0-.07,0-.08-.05-.09-.11-.01-.09-.01-.26-.01-.45v-.83s0-.04,.02-.04c.02,0,.06,0,.08,0,.06,0,.11,.03,.16,.08,.13,.11,.14,.24,.14,.31,0,.21-.1,.34-.23,.34-.05,0-.07,0-.07,.02,0,.02,.02,.02,.03,.02,.01,0,.04,0,.05,0,.34,0,.49-.21,.49-.5,0-.11-.07-.2-.12-.25-.11-.1-.22-.12-.38-.12-.11,0-.22,0-.32,0-.07,0-.21,0-.34,0-.03,0-.05,0-.05,.02,0,.02,.01,.02,.04,.02,.03,0,.07,0,.09,0,.08,.01,.1,.05,.1,.12,0,.07,0,.12,0,.44v.36c0,.19,0,.35-.01,.44,0,.06-.02,.11-.07,.12-.02,0-.05,0-.08,0-.03,0-.04,0-.04,.02,0,.02,.01,.02,.05,.02,.09,0,.24,0,.3,0,.06,0,.21,0,.36,0Z" fill="#541b86"/>
            <path d="M36.12,39.61c-.11,0-.22,0-.32,0-.07,0-.21,0-.34,0-.03,0-.05,0-.05,.02,0,.01,.01,.02,.04,.02,.03,0,.08,0,.09,0,.08,.02,.1,.05,.1,.12,0,.07,0,.12,0,.44v.36c0,.19,0,.36-.01,.44,0,.06-.02,.11-.07,.11-.02,0-.05,0-.09,0-.03,0-.03,0-.03,.02,0,.01,.02,.02,.05,.02,.09,0,.24,0,.3,0,.06,0,.21,0,.36,0,.03,0,.04,0,.04-.02,0-.01-.01-.02-.04-.02-.03,0-.09,0-.12,0-.07,0-.08-.05-.09-.11-.01-.09-.01-.25-.01-.45v-.83s0-.04,.02-.04c.02,0,.06,0,.08,0,.06,0,.11,.03,.16,.08,.13,.11,.14,.24,.14,.31,0,.21-.1,.34-.23,.34-.05,0-.07,0-.07,.03,0,.01,.02,.02,.03,.02,.01,0,.04,0,.05,0,.33,0,.49-.21,.49-.5,0-.11-.07-.2-.12-.25-.11-.1-.22-.12-.38-.12Z" fill="#541b86"/>
            <path d="M36.83,35.38s.07,0,.08,0c.07,.02,.08,.05,.09,.12,0,.07,0,.12,0,.44v.37c0,.19,0,.36-.01,.44,0,.06-.02,.11-.06,.12-.02,0-.04,0-.07,0-.03,0-.04,0-.04,.01,0,.02,.02,.02,.04,.02,.09,0,.25,0,.29,0,.03,0,.2,0,.32,0,.03,0,.04,0,.04-.02,0,0,0-.01-.03-.01-.03,0-.07,0-.1,0-.06,0-.08-.06-.08-.12,0-.09,0-.25,0-.45v-.03s0-.02,.02-.02h.13s.03,0,.04,.02c.03,.03,.12,.17,.21,.29,.11,.16,.19,.26,.28,.3,.05,.03,.11,.04,.22,.04h.22s.04,0,.04-.02c0,0,0-.01-.02-.01-.02,0-.04,0-.06,0-.03,0-.12-.02-.23-.14-.12-.13-.27-.31-.45-.55,.21-.17,.27-.31,.27-.47,0-.14-.08-.25-.14-.29-.11-.08-.27-.09-.41-.09-.07,0-.22,0-.3,0-.04,0-.17,0-.28,0-.03,0-.05,0-.05,.02,0,.01,.01,.02,.03,.02Zm.47,.1s0-.03,.02-.03c.02,0,0,0,.06,0,.12,0,.3,.09,.3,.38,0,.17-.06,.27-.12,.31-.04,.03-.04,.04-.12,.04-.05,0-.07,0-.11-.02-.02,0-.02-.01-.02-.04v-.63Z" fill="#541b86"/>
            <path d="M43.31,41.27s-.04,0-.06,0c-.03,0-.12-.02-.23-.14-.12-.13-.27-.32-.45-.55,.21-.17,.27-.31,.27-.46,0-.14-.08-.25-.14-.29-.11-.08-.28-.09-.41-.09-.06,0-.22,0-.29,0-.04,0-.17,0-.28,0-.03,0-.05,0-.05,.02,0,.02,.01,.02,.03,.02,.03,0,.07,0,.08,0,.07,.01,.09,.05,.09,.12,0,.07,0,.12,0,.44v.36c0,.19,0,.35,0,.44,0,.06-.02,.11-.06,.11-.02,0-.04,0-.07,0-.03,0-.03,0-.03,.02,0,.01,.01,.02,.04,.02,.08,0,.25,0,.29,0,.03,0,.2,0,.32,0,.03,0,.04,0,.04-.02,0-.01,0-.02-.03-.02-.03,0-.07,0-.1,0-.06,0-.08-.05-.08-.11-.01-.09-.01-.25-.01-.44v-.03s0-.02,.02-.02h.14s.03,0,.04,.02c.03,.03,.12,.17,.2,.29,.12,.16,.2,.26,.29,.3,.05,.03,.11,.04,.22,.04h.22s.04,0,.04-.02c0-.01,0-.02-.03-.02Zm-.88-.74s-.04,.04-.12,.04c-.05,0-.07,0-.11-.02-.02,0-.02-.01-.02-.04v-.63s0-.03,.02-.03c.02,0,0,0,.06,0,.12,0,.29,.09,.29,.38,0,.17-.06,.27-.12,.31Z" fill="#541b86"/>
            <path d="M39.4,35.62c-.53,0-.73,.46-.73,.81s.21,.81,.71,.81c.45,0,.73-.37,.73-.85s-.27-.78-.71-.78Zm.05,1.52c-.29,0-.46-.34-.46-.77,0-.52,.19-.65,.37-.65,.25,0,.44,.29,.44,.76,0,.6-.24,.67-.35,.67Z" fill="#541b86"/>
            <path d="M45.9,35.62c-.53,0-.73,.46-.73,.81s.2,.81,.71,.81c.45,0,.73-.37,.73-.85s-.27-.78-.71-.78Zm.05,1.52c-.29,0-.46-.34-.46-.77,0-.52,.2-.65,.37-.65,.25,0,.44,.29,.44,.76,0,.6-.24,.67-.35,.67Z" fill="#541b86"/>
            <path d="M41.73,35.69s.06,0,.07,0c.06,.01,.08,.05,.08,.12,0,.07,0,.12,0,.44v.36c0,.19,0,.35,0,.44,0,.06-.02,.11-.05,.12-.02,0-.04,0-.07,0-.02,0-.03,0-.03,.02,0,.02,.01,.02,.04,.02,.07,0,.19,0,.23,0,.09,0,.26,.02,.39,.02,.34,0,.53-.15,.61-.25,.1-.12,.2-.32,.2-.58s-.09-.42-.18-.53c-.2-.24-.5-.24-.73-.24-.11,0-.22,0-.28,0-.05,0-.17,0-.27,0-.03,0-.04,0-.04,.02,0,.02,0,.02,.03,.02Zm.45,.53v-.42s0-.03,.02-.04c.01,0,.07-.02,.1-.02,.12,0,.3,.03,.45,.21,.07,.08,.15,.26,.15,.52,0,.22-.03,.4-.13,.52-.09,.11-.2,.15-.36,.15-.12,0-.18-.04-.2-.08-.01-.02-.02-.11-.02-.16,0-.04,0-.2,0-.42v-.26Z" fill="#541b86"/>
            <path d="M44.68,36.87s.03-.18,.03-.23c0-.02,0-.04-.02-.04-.01,0-.02,0-.02,.03-.02,.09-.04,.13-.1,.15-.06,.03-.16,.03-.22,.03-.23,0-.27-.03-.28-.17v-.49s0-.02,.02-.02c.05,0,.28,0,.32,0,.09,0,.12,.04,.13,.08,0,.03,0,.05,0,.08,0,.01,0,.02,.02,.02,.02,0,.02-.02,.02-.04,0-.01,0-.1,.01-.14,0-.11,.02-.14,.02-.15,0-.02,0-.02,0-.02-.02,0-.03,.01-.05,.03-.02,.02-.05,.03-.11,.03-.06,0-.32,0-.37,0-.01,0-.02,0-.02-.02v-.53s0-.02,.02-.02c.05,0,.29,0,.32,0,.12,.01,.14,.04,.16,.08,0,.02,.01,.06,.01,.08,0,.02,0,.03,.02,.03,.01,0,.02-.01,.02-.02,0-.03,0-.12,.01-.14,0-.09,.02-.12,.02-.14,0,0,0-.02-.01-.02-.01,0-.03,0-.04,0-.02,0-.06,0-.1,.01-.04,0-.5,0-.57,0-.07,0-.21,0-.33,0-.04,0-.05,0-.05,.02,0,.01,.02,.02,.04,.02,.03,0,.07,0,.09,0,.07,.02,.09,.05,.1,.12,0,.07,0,.12,0,.44v.37c0,.19,0,.36-.01,.44-.01,.06-.02,.11-.07,.12-.02,0-.05,0-.08,0-.03,0-.04,0-.04,.01,0,.02,.02,.02,.05,.02,.09,0,.23,0,.29,0,.14,0,.29,.01,.63,.01,.09,0,.11,0,.12-.05Z" fill="#541b86"/>
            <path d="M38.68,37.7s.29,0,.32,0c.12,.01,.14,.04,.15,.07,0,.03,.01,.06,.01,.08,0,.02,0,.03,.02,.03s.02-.01,.02-.03c0-.02,0-.11,.01-.13,0-.1,.02-.12,.02-.14,0-.01,0-.02-.02-.02s-.02,0-.04,0c-.02,0-.05,0-.1,.01-.04,0-.5,0-.57,0-.07,0-.21,0-.33,0-.03,0-.05,0-.05,.02,0,.02,0,.02,.04,.02,.03,0,.07,0,.09,0,.08,.02,.09,.05,.1,.12,0,.07,0,.12,0,.44v.37c0,.19,0,.35-.01,.44,0,.06-.02,.11-.07,.11-.02,0-.05,0-.08,0-.03,0-.04,0-.04,.02,0,.02,.02,.02,.05,.02,.09,0,.23,0,.29,0,.13,0,.29,.01,.63,.01,.09,0,.11,0,.12-.05,0-.04,.03-.18,.03-.23,0-.02,0-.04-.02-.04-.01,0-.02,0-.02,.03-.02,.09-.04,.13-.1,.15-.06,.03-.16,.03-.22,.03-.23,0-.27-.03-.28-.18v-.49s0-.02,.02-.02c.05,0,.28,0,.32,0,.09,0,.12,.04,.13,.08,0,.03,0,.06,0,.08,0,0,0,.02,.02,.02,.02,0,.02-.02,.02-.04,0-.02,0-.1,0-.14,0-.11,.02-.14,.02-.15s0-.02-.02-.02-.02,0-.04,.03c-.02,.02-.05,.03-.11,.03-.05,0-.32,0-.37,0-.02,0-.02,0-.02-.02v-.53s0-.02,.02-.02Z" fill="#541b86"/>
            <path d="M43.61,37.85s0,.04,.03,.04c.01,0,.01-.01,.02-.03,0-.05,0-.2,0-.24,0-.03,0-.04-.02-.04-.02,0-.07,.02-.2,.02h-.82c-.07,0-.15,0-.21,0-.05,0-.07-.03-.09-.03-.01,0-.02,.01-.03,.04,0,.02-.04,.21-.04,.24,0,.02,0,.03,.02,.03s.02,0,.02-.02c0-.02,.01-.04,.04-.07,.03-.05,.08-.06,.2-.06h.3s0,.84,0,.84c0,.19,0,.35-.01,.44,0,.06-.02,.11-.06,.11-.02,0-.05,0-.07,0-.03,0-.04,0-.04,.02,0,.02,.02,.02,.04,.02,.08,0,.23,0,.27,0,.06,0,.2,0,.34,0,.02,0,.04,0,.04-.02,0,0-.01-.02-.04-.02-.03,0-.08,0-.11,0-.06,0-.08-.05-.08-.11,0-.09,0-.26,0-.45v-.85h.25c.18,.01,.24,.07,.24,.12v.02Z" fill="#541b86"/>
            <path d="M40.06,39.72s-.07,.02-.2,.02h-.82c-.07,0-.15,0-.21,0-.05,0-.07-.03-.09-.03-.01,0-.02,.01-.03,.04,0,.02-.04,.2-.04,.24,0,.02,0,.04,.02,.04,.01,0,.02,0,.02-.03,0-.02,.01-.04,.04-.07,.03-.05,.08-.05,.2-.06h.3s0,.84,0,.84c0,.19,0,.35-.01,.44,0,.06-.02,.11-.06,.11-.02,0-.04,0-.08,0-.02,0-.03,0-.03,.02,0,.01,.02,.02,.04,.02,.08,0,.23,0,.27,0,.06,0,.2,0,.34,0,.02,0,.04,0,.04-.02,0-.01-.01-.02-.03-.02-.03,0-.08,0-.11,0-.06,0-.08-.05-.08-.11,0-.09,0-.25,0-.45v-.85h.25c.18,0,.24,.07,.24,.12v.02s0,.04,.03,.04c.01,0,.02-.01,.02-.03,0-.05,0-.2,0-.24,0-.03,0-.04-.02-.04Z" fill="#541b86"/>
            <path d="M44.26,41.04s-.08,0-.11,0c-.06,0-.08-.05-.09-.1,0-.09,0-.25,0-.46v-.37c0-.32,0-.37,0-.44,0-.07,.02-.11,.07-.12,.03,0,.04,0,.06,0,.02,0,.03,0,.03-.02,0-.01-.02-.02-.04-.02-.08,0-.22,0-.27,0-.06,0-.21,0-.29,0-.04,0-.05,0-.05,.02,0,.02,.01,.02,.03,.02,.03,0,.05,0,.08,0,.04,0,.07,.05,.07,.12,0,.07,0,.12,0,.44v.37c0,.2,0,.37,0,.45,0,.06-.02,.1-.06,.11-.02,0-.04,0-.07,0-.03,0-.04,0-.04,.01,0,.02,.02,.02,.04,.02,.08,0,.23,0,.28,0,.06,0,.2,0,.34,0,.02,0,.04,0,.04-.02,0,0-.01-.01-.03-.01Z" fill="#541b86"/>
            <path d="M38.49,41.04s-.06,0-.09,0c-.04,0-.11-.04-.18-.23-.13-.32-.47-1.16-.52-1.28-.02-.05-.03-.07-.05-.07s-.03,.03-.06,.08l-.52,1.31c-.04,.11-.08,.17-.18,.19-.02,0-.05,0-.07,0-.02,0-.03,0-.03,.01,0,.02,.01,.02,.04,.02,.11,0,.22,0,.25,0,.07,0,.15,0,.22,0,.03,0,.04,0,.04-.02,0-.01,0-.01-.03-.01h-.03c-.07,0-.08-.03-.08-.07,0-.03,0-.07,.03-.13l.08-.21h.55l.13,.35s0,.04-.02,.05c-.02,0-.03,0-.03,.02,0,.02,.02,.02,.06,.02,.16,0,.34,0,.41,0,.08,0,.1,0,.1-.02,0-.01-.01-.01-.03-.01Zm-.93-1.08s0-.02,0-.02c.01,0,.02,0,.02,.02l.18,.45,.05,.12h-.47l.05-.12,.17-.45Z" fill="#541b86"/>
            <path d="M46.29,41.15s-.06,0-.09,0c-.04-.01-.1-.04-.18-.23-.13-.32-.47-1.17-.52-1.28-.02-.05-.03-.07-.05-.07s-.03,.02-.06,.08l-.52,1.31c-.04,.1-.08,.17-.18,.19-.02,0-.05,0-.07,0-.01,0-.02,0-.02,.02,0,.01,.01,.02,.04,.02,.11,0,.22,0,.25,0,.06,0,.15,0,.22,0,.02,0,.04,0,.04-.02,0-.01,0-.02-.03-.02h-.03c-.07,0-.08-.03-.08-.06,0-.03,0-.08,.03-.13l.08-.21h.55l.13,.35s0,.04-.02,.05c-.02,0-.03,0-.03,.02s.02,.01,.06,.01c.17,0,.34,0,.42,0s.09,0,.09-.02c0-.02,0-.02-.03-.02Zm-.93-1.07s0-.02,0-.02c.01,0,.01,0,.02,.02l.18,.45,.05,.12h-.47l.05-.12,.17-.45Z" fill="#541b86"/>
          </g>
        </g>
      </g>
      <g>
        <g>
          <path d="M23.26,37.87s-1.89,.03-2.04,.04c0-.08,0-.22,0-.23,0-.29,.09-.55,1.02-1.17l.99-.66-.02-1.02-.13,.1-.08,.06c-.38,.29-.53,.4-.83,.59l-.02,.02c-.53,.34-.93,.6-1.2,.98-.24-.46-.65-.71-1.18-.7-.86,.01-1.39,.65-1.37,1.65l.02,1.27,4.87-.09-.02-.84Zm-4.13-.32c0-.71,.35-.8,.61-.81,.2,0,.35,.04,.47,.15,.14,.14,.22,.36,.22,.67,0,0,0,.24,0,.35-.14,0-1.17,.02-1.31,.02,0-.11,0-.35,0-.35v-.04Z" fill="#fff"/>
          <polygon points="18.69 32.95 18.68 33.03 18.56 33.78 23.38 34.51 23.51 33.68 18.69 32.95" fill="#fff"/>
          <path d="M25.15,28.56l-.04-.09s-3.17,1.55-3.3,1.62c-.07-.14-1.45-2.78-1.45-2.78l-.06,.18-.3,.83s1.1,2.1,1.27,2.43c-.33-.12-1.9-.68-1.9-.68l-.29,.79,4.58,1.65,.29-.79s-1.77-.64-2.08-.75c.32-.15,2.85-1.39,2.85-1.39l.44-1.01Z" fill="#fff"/>
          <path d="M27.52,24.98s-3.44,.76-3.59,.79c-.04-.15-.76-3.04-.76-3.04l-.11,.16-.49,.73s.57,2.3,.66,2.66c-.29-.19-1.68-1.12-1.68-1.12l-.46,.71,4.06,2.69,.47-.71s-1.56-1.03-1.84-1.22c.34-.08,3.1-.68,3.1-.68l.65-.98Z" fill="#fff"/>
          <path d="M26.84,22.26c0-.06-.37-2.94-.37-2.94l-.12,.12-.6,.61s.22,1.79,.25,1.98c-.19-.02-1.97-.23-1.97-.23l-.72,.73s2.89,.33,2.94,.33c.04,.04,1.81,1.79,1.81,1.79l.59-.6s-1.76-1.74-1.81-1.78Z" fill="#fff"/>
          <path d="M32.51,18.31c-.36-.58-.9-.97-1.53-1.12-.67-.16-1.36-.02-2.01,.38-1.26,.79-1.64,2.29-.89,3.5,.76,1.21,2.27,1.53,3.52,.75,.65-.41,1.08-.97,1.23-1.64,.15-.63,.03-1.3-.32-1.87Zm-.5,1.74c-.1,.44-.39,.83-.81,1.09-.42,.26-.89,.35-1.33,.24-.43-.1-.8-.37-1.05-.77-.25-.4-.33-.85-.23-1.28,.1-.44,.39-.83,.81-1.09,.42-.26,.9-.35,1.34-.25,.43,.1,.8,.37,1.05,.77,.25,.4,.33,.85,.23,1.28Z" fill="#fff"/>
          <path d="M39.65,17.09l-.5-2.9-.08,.02-.75,.13,.48,2.78c.08,.49,.05,.78-.1,1-.11,.15-.38,.42-.97,.53-.39,.07-.71,0-1.01-.21-.23-.16-.32-.35-.41-.85l-.49-2.82-.83,.14,.51,2.96c.24,1.4,1.41,1.71,2.34,1.55,.71-.12,1.22-.41,1.53-.84,.28-.39,.37-.91,.27-1.49Z" fill="#fff"/>
          <path d="M44.8,14.52s-.34,3.09-.38,3.48c-.24-.33-2.67-3.81-2.67-3.81l-.66-.07v.08s-.53,4.76-.53,4.76l.8,.09s.33-3.06,.38-3.46c.23,.34,2.63,3.79,2.63,3.79l.7,.08,.53-4.84-.8-.09Z" fill="#fff"/>
          <polygon points="47.45 15.19 47.43 15.27 45.95 19.82 46.75 20.09 48.26 15.46 47.45 15.19" fill="#fff"/>
          <path d="M52.3,17.28s-2.37,1.99-2.64,2.22c.02-.35,.23-3.45,.23-3.45l-.76-.39v.13s-.35,5.21-.35,5.21l.22,.11,4.07-3.44-.76-.39Z" fill="#fff"/>
          <path d="M55.61,20.67l.48-.61-2.22-1.76-.05,.07-2.97,3.75,2.27,1.8,.48-.61s-1.49-1.18-1.61-1.28c.09-.11,.72-.9,.81-1.01,.12,.1,1.51,1.2,1.51,1.2l.48-.61s-1.39-1.1-1.51-1.2c.09-.11,.69-.87,.78-.98,.12,.1,1.56,1.24,1.56,1.24Z" fill="#fff"/>
          <path d="M58.2,22.33l-.8-.99-.07,.05-3.72,3.01,.53,.66s1.47-1.18,1.59-1.28c.05,.06,.12,.15,.12,.15,.1,.12,.17,.25,.17,.49,0,.23-.07,.56-.24,1.08l-.38,1.13,.64,.79,.07-.26c.12-.46,.18-.64,.29-.98v-.03c.21-.57,.37-1.01,.37-1.46,0-.02,0-.03,0-.05,.47,.21,.94,.16,1.35-.18,.67-.54,.7-1.36,.07-2.15Zm-.85,.14c.07,.09,.22,.27,.22,.27,.2,.25,.28,.45,.28,.61,0,.2-.12,.34-.24,.44-.15,.13-.31,.18-.46,.17-.2-.02-.4-.15-.59-.4,0,0-.14-.17-.22-.27,.11-.09,.91-.73,1.02-.82Z" fill="#fff"/>
          <path d="M61.12,26.68c-.41-.82-1.15-1.11-1.88-.74-.66,.33-.71,1.05-.76,1.69-.04,.54-.08,1.01-.44,1.2-.1,.05-.24,.05-.37,0-.11-.04-.27-.14-.39-.39-.2-.39-.18-.85,.05-1.34l.1-.22-1.02,.51v.04c-.1,.5-.03,.96,.21,1.42,.18,.35,.47,.61,.82,.73,.33,.11,.7,.08,1.03-.09,.8-.4,.83-1.2,.86-1.84,.02-.48,.04-.9,.35-1.06,.25-.13,.55,.03,.72,.37,.17,.33,.18,.71,.06,1.15l-.06,.19,.9-.46v-.04c.05-.4-.01-.79-.18-1.13Z" fill="#fff"/>
          <polygon points="62.17 29.33 62.09 29.35 57.55 30.85 57.81 31.65 62.44 30.13 62.17 29.33" fill="#fff"/>
          <path d="M62.78,31.02h-.08s-.68,.13-.68,.13c0,0,.24,1.46,.27,1.6-.16,.03-4.04,.67-4.04,.67l.14,.83s3.88-.64,4.04-.67c.02,.15,.26,1.6,.26,1.6l.77-.13-.67-4.04Z" fill="#fff"/>
          <path d="M63.5,35.39l-.14,.1s-2.21,1.6-2.25,1.64c-.06,0-2.54-.1-2.54-.1l-.03,.84s2.48,.1,2.53,.1c.04,.04,2.26,1.92,2.26,1.92l.04-1.03s-1.37-1.17-1.52-1.29c.16-.11,1.62-1.16,1.62-1.16l.04-1.03Z" fill="#fff"/>
        </g>
        <g>
          <path d="M22.09,41.5c0,.41-.33,.74-.74,.74s-.74-.33-.74-.74,.33-.74,.74-.74,.74,.33,.74,.74Z" fill="#fff"/>
          <path d="M61.18,41.5c0,.41-.33,.74-.74,.74s-.74-.33-.74-.74,.33-.74,.74-.74,.74,.33,.74,.74Z" fill="#fff"/>
        </g>
        <g>
          <path d="M26.14,46.57s-2.2-.4-2.38-.43c.07-.18,.92-2.24,.92-2.24l-.36-.67-.08,.04-4.19,2.31,.41,.74s2.74-1.51,3.09-1.7c-.14,.33-.83,1.98-.83,1.98l.09,.17s1.76,.3,2.12,.36c-.35,.19-3.09,1.7-3.09,1.7l.41,.74,4.27-2.35-.36-.66Z" fill="#fff"/>
          <path d="M28.27,49.09l-1.35-1.35-.06,.06-3.38,3.39,1.36,1.35c.53,.53,1.17,.81,1.85,.8,.63,0,1.25-.26,1.7-.71,.46-.47,.73-1.09,.73-1.71,0-.66-.29-1.29-.84-1.84Zm-.63,.47c.46,.45,.64,.91,.64,1.32,0,.45-.21,.85-.51,1.15-.44,.44-1.44,.91-2.45-.09,0,0-.53-.53-.7-.7,.11-.11,2.23-2.24,2.34-2.35l.68,.68Z" fill="#fff"/>
          <path d="M33.72,53.39c-.43-.57-.79-.92-1.23-1.17-.66-.38-1.39-.5-2.06-.32-.63,.17-1.18,.6-1.53,1.2-.31,.53-.39,1.21-.23,1.83,.18,.65,.62,1.2,1.28,1.59,.71,.41,1.27,.49,1.72,.51h.05s.47-.81,.47-.81h-.15c-.61,.04-1.19-.09-1.64-.35-.94-.55-1.23-1.5-.72-2.38,.23-.4,.59-.68,1.02-.8,.45-.12,.95-.04,1.39,.21,.45,.27,.8,.64,1.12,1.21l.07,.13,.47-.8-.04-.05Z" fill="#fff"/>
          <path d="M38.21,54.68c-.56-.44-1.01-.68-1.48-.81-1.49-.41-2.85,.34-3.24,1.77-.16,.59-.07,1.27,.25,1.83,.34,.59,.9,1.01,1.64,1.21,.79,.21,1.35,.15,1.79,.05h.05s.25-.92,.25-.92l-.15,.05c-.58,.19-1.18,.22-1.68,.08-1.05-.29-1.58-1.14-1.31-2.12,.26-.96,1.18-1.46,2.18-1.18,.51,.14,.94,.41,1.4,.88l.1,.1,.24-.89-.04-.03Z" fill="#fff"/>
          <path d="M42.82,58.06c-.52,.33-1.08,.51-1.6,.51-1.09,0-1.81-.7-1.8-1.71,0-.46,.18-.89,.49-1.2,.33-.33,.8-.51,1.31-.5,.53,0,1.01,.16,1.58,.49l.12,.07v-.93s-.04-.02-.04-.02c-.65-.28-1.15-.4-1.64-.41-.76,0-1.45,.26-1.94,.75-.47,.46-.73,1.1-.74,1.8,0,.61,.26,1.25,.71,1.7,.48,.48,1.13,.74,1.89,.75,.82,0,1.34-.2,1.75-.41l.05-.02v-.94s-.12,.08-.12,.08Z" fill="#fff"/>
          <path d="M47.3,57.63s-1.92,.43-2.07,.46c-.04-.16-.89-4-.89-4l-.08,.02-.74,.16,1.06,4.75,2.9-.65-.17-.76Z" fill="#fff"/>
          <path d="M50.08,54.55c.03-.13,.72-2.96,.72-2.96l-.16,.08-.77,.37s-.48,2.01-.52,2.19c-.17-.08-2.06-.94-2.06-.94l-.93,.45s2.66,1.21,2.78,1.27c-.03,.13-.79,3.18-.79,3.18l.93-.45s.55-2.21,.6-2.4c.17,.08,2.23,1.03,2.23,1.03l.93-.45s-2.85-1.31-2.97-1.36Z" fill="#fff"/>
          <path d="M57.8,51.87s-3.09-.48-3.22-.5c0-.13-.11-3.05-.11-3.05l-.13,.12-.64,.57s.09,2.07,.09,2.25c-.18-.03-2.23-.35-2.23-.35l-.78,.69s2.89,.44,3.02,.46c0,.13,.11,3.28,.11,3.28l.78-.69s-.07-2.28-.08-2.47c.18,.03,2.43,.38,2.43,.38l.77-.68Z" fill="#fff"/>
          <polygon points="55.24 47.08 55.18 47.14 54.73 47.75 58.61 50.69 59.12 50.02 55.24 47.08" fill="#fff"/>
          <path d="M57.67,42.76l-.06,.11-.33,.65s1.99,2.37,2.21,2.64c-.35-.03-3.44-.23-3.44-.23l-.39,.77,5.33,.35,.11-.22-3.44-4.07Z" fill="#fff"/>
        </g>
      </g>
    </g>
  </g>
</svg>